<svg xmlns="http://www.w3.org/2000/svg" xmlns:xlink="http://www.w3.org/1999/xlink" viewBox="0 0 30 17.31"><defs><linearGradient id="a" x1="1.206" y1="9.974" x2="22.474" y2="17.715" gradientTransform="matrix(1, 0, -0.063, 1, 1.082, 0)" gradientUnits="userSpaceOnUse"><stop offset="0" stop-color="#543a00"/><stop offset="0.051" stop-color="#654c00"/><stop offset="0.228" stop-color="#9b8400"/><stop offset="0.393" stop-color="#c6b100"/><stop offset="0.538" stop-color="#e5d100"/><stop offset="0.66" stop-color="#f8e500"/><stop offset="0.744" stop-color="#ffec00"/></linearGradient><linearGradient id="b" x1="14.327" y1="11.552" x2="14.327" y2="5.822" gradientTransform="matrix(1, 0, -0.063, 1, 1.082, 0)" gradientUnits="userSpaceOnUse"><stop offset="0" stop-color="#e20613"/><stop offset="0.214" stop-color="#df0613"/><stop offset="0.379" stop-color="#d50611"/><stop offset="0.526" stop-color="#c5060f"/><stop offset="0.664" stop-color="#ae070c"/><stop offset="0.795" stop-color="#900708"/><stop offset="0.919" stop-color="#6c0804"/><stop offset="1" stop-color="#500800"/></linearGradient><linearGradient id="c" x1="4.863" y1="-0.075" x2="26.13" y2="7.665" gradientTransform="matrix(1, 0, -0.063, 1, 1.082, 0)" gradientUnits="userSpaceOnUse"><stop offset="0.079" stop-color="#2d2d2b"/><stop offset="0.329" stop-color="#3b3b39"/><stop offset="0.662" stop-color="#464645"/><stop offset="1" stop-color="#4a4a49"/></linearGradient></defs><title>flag-de</title><path d="M5.035,11.552A2.651,2.651,0,0,1,2.383,8.81c0-.039,0-.078,0-.118a2.922,2.922,0,0,1,.181-.847L1,11.552.245,13.319a4.231,4.231,0,0,0-.238,1.134A2.592,2.592,0,0,0,2.856,17.31H18.287a7.446,7.446,0,0,0,6.175-4.327l.61-1.43Z" transform="translate(0)" style="fill:url(#a)"/><path d="M5.428,5.832a3.09,3.09,0,0,0-2.75,1.757l-.109.256a2.922,2.922,0,0,0-.181.847c0,.04,0,.079,0,.118a2.651,2.651,0,0,0,2.652,2.742H25.072l2.445-5.73Z" transform="translate(0)" style="fill:url(#b)"/><path d="M5.428,5.832l22.089-.01L30,0H10.245A7.445,7.445,0,0,0,4.07,4.328L2.678,7.589A3.09,3.09,0,0,1,5.428,5.832Z" transform="translate(0)" style="fill:url(#c)"/></svg>