<svg xmlns="http://www.w3.org/2000/svg" xmlns:xlink="http://www.w3.org/1999/xlink" viewBox="0 0 30 17.3101"><defs><linearGradient id="a" x1="-409.4687" y1="-415.7691" x2="-409.4851" y2="-415.8078" gradientTransform="matrix(25.7398, -409.123, -409.123, 0, -159551.0424, -167518.6677)" gradientUnits="userSpaceOnUse"><stop offset="0.022" stop-color="#170a34"/><stop offset="0.0232" stop-color="#170a34"/><stop offset="0.1911" stop-color="#221852"/><stop offset="0.3569" stop-color="#2a2167"/><stop offset="0.5183" stop-color="#2f2774"/><stop offset="0.6703" stop-color="#312978"/></linearGradient><linearGradient id="b" x1="-409.4784" y1="-415.7651" x2="-409.4947" y2="-415.8037" xlink:href="#a"/><linearGradient id="c" x1="7.5254" y1="8.3354" x2="19.8658" y2="13.5736" gradientTransform="matrix(1, 0, -0.0629, 1, 1.0818, 0)" gradientUnits="userSpaceOnUse"><stop offset="0"/><stop offset="0.0638" stop-color="#2a2a2a"/><stop offset="0.15" stop-color="#5b5b5b"/><stop offset="0.2408" stop-color="#878787"/><stop offset="0.3345" stop-color="#acacac"/><stop offset="0.4318" stop-color="#cacaca"/><stop offset="0.5338" stop-color="#e2e2e2"/><stop offset="0.6428" stop-color="#f2f2f2"/><stop offset="0.7634" stop-color="#fcfcfc"/><stop offset="0.9188" stop-color="#fff"/></linearGradient><linearGradient id="d" x1="-409.4663" y1="-415.7702" x2="-409.4827" y2="-415.8088" xlink:href="#a"/><linearGradient id="e" x1="9.611" y1="3.4221" x2="21.9514" y2="8.6603" xlink:href="#c"/><linearGradient id="f" x1="-409.4845" y1="-415.7624" x2="-409.5009" y2="-415.801" xlink:href="#a"/><linearGradient id="g" x1="6.4563" y1="10.8541" x2="18.7967" y2="16.0923" xlink:href="#c"/><linearGradient id="h" x1="-409.4681" y1="-415.7694" x2="-409.4845" y2="-415.808" xlink:href="#a"/><linearGradient id="i" x1="9.3045" y1="4.144" x2="21.645" y2="9.3822" xlink:href="#c"/><linearGradient id="j" x1="-409.4561" y1="-415.7745" x2="-409.4725" y2="-415.8131" xlink:href="#a"/><linearGradient id="k" x1="11.3892" y1="-0.7672" x2="23.7297" y2="4.471" xlink:href="#c"/><linearGradient id="l" x1="7.942" y1="-0.3565" x2="7.942" y2="20.7898" gradientTransform="matrix(1, 0, -0.0629, 1, 1.0818, 0)" gradientUnits="userSpaceOnUse"><stop offset="0.6593" stop-color="#312978"/><stop offset="0.8329" stop-color="#241955"/><stop offset="0.978" stop-color="#170a34"/></linearGradient><linearGradient id="m" x1="4.2335" y1="-0.3565" x2="4.2335" y2="20.7898" xlink:href="#l"/><linearGradient id="n" x1="14.5148" y1="-0.3565" x2="14.5148" y2="20.7898" xlink:href="#l"/><linearGradient id="o" x1="-409.4605" y1="-415.7726" x2="-409.4769" y2="-415.8112" xlink:href="#a"/><linearGradient id="p" x1="12.4767" y1="-0.3565" x2="12.4767" y2="20.7898" xlink:href="#l"/><linearGradient id="q" x1="5.0882" y1="-0.3565" x2="5.0882" y2="20.7899" xlink:href="#l"/><linearGradient id="r" x1="2.8114" y1="-0.3565" x2="2.8114" y2="20.7898" xlink:href="#l"/><linearGradient id="s" x1="-409.4935" y1="-415.7586" x2="-409.5099" y2="-415.7972" xlink:href="#a"/><linearGradient id="t" x1="7.558" y1="-0.3565" x2="7.558" y2="20.7898" xlink:href="#l"/><linearGradient id="u" x1="-409.4899" y1="-415.7602" x2="-409.5063" y2="-415.7988" xlink:href="#a"/><linearGradient id="v" x1="7.3296" y1="-0.3565" x2="7.3296" y2="20.7898" xlink:href="#l"/><linearGradient id="w" x1="-409.4848" y1="-415.7623" x2="-409.5012" y2="-415.8009" xlink:href="#a"/><linearGradient id="x" x1="7.3714" y1="-0.3565" x2="7.3714" y2="20.7898" xlink:href="#l"/><linearGradient id="y" x1="-409.4929" y1="-415.7589" x2="-409.5093" y2="-415.7975" xlink:href="#a"/><linearGradient id="z" x1="7.4437" y1="-0.3565" x2="7.4437" y2="20.7898" xlink:href="#l"/><linearGradient id="aa" x1="-409.4948" y1="-415.7581" x2="-409.5112" y2="-415.7967" xlink:href="#a"/><linearGradient id="ab" x1="9.89" y1="-0.3565" x2="9.89" y2="20.7898" xlink:href="#l"/><linearGradient id="ac" x1="-409.4536" y1="-415.7755" x2="-409.47" y2="-415.8142" xlink:href="#a"/><linearGradient id="ad" x1="16.1014" y1="-0.3565" x2="16.1014" y2="20.7898" xlink:href="#l"/><linearGradient id="ae" x1="-409.4938" y1="-415.7585" x2="-409.5102" y2="-415.7971" xlink:href="#a"/><linearGradient id="af" x1="7.639" y1="-0.3565" x2="7.639" y2="20.7898" xlink:href="#l"/><linearGradient id="ag" x1="-409.4542" y1="-415.7753" x2="-409.4706" y2="-415.8139" xlink:href="#a"/><linearGradient id="ah" x1="15.6142" y1="-0.3565" x2="15.6142" y2="20.7898" xlink:href="#l"/><linearGradient id="ai" x1="-409.4812" y1="-415.7638" x2="-409.4976" y2="-415.8024" xlink:href="#a"/><linearGradient id="aj" x1="7.9107" y1="-0.3565" x2="7.9107" y2="20.7898" xlink:href="#l"/><linearGradient id="ak" x1="-409.4595" y1="-415.773" x2="-409.4759" y2="-415.8116" xlink:href="#a"/><linearGradient id="al" x1="12.8411" y1="-0.3565" x2="12.8411" y2="20.7898" xlink:href="#l"/><linearGradient id="am" x1="-409.4943" y1="-415.7583" x2="-409.5107" y2="-415.7969" xlink:href="#a"/><linearGradient id="an" x1="7.8632" y1="-0.3565" x2="7.8632" y2="20.7898" xlink:href="#l"/><linearGradient id="ao" x1="-409.4551" y1="-415.7749" x2="-409.4715" y2="-415.8135" xlink:href="#a"/><linearGradient id="ap" x1="15.0015" y1="-0.3565" x2="15.0015" y2="20.7898" xlink:href="#l"/><linearGradient id="aq" x1="-409.4951" y1="-415.7579" x2="-409.5115" y2="-415.7965" xlink:href="#a"/><linearGradient id="ar" x1="9.0309" y1="-0.3565" x2="9.0309" y2="20.7898" xlink:href="#l"/><linearGradient id="as" x1="-409.4949" y1="-415.758" x2="-409.5112" y2="-415.7967" xlink:href="#a"/><linearGradient id="at" x1="8.2494" y1="-0.3565" x2="8.2494" y2="20.7898" xlink:href="#l"/><linearGradient id="au" x1="-409.4946" y1="-415.7582" x2="-409.511" y2="-415.7968" xlink:href="#a"/><linearGradient id="av" x1="8.0262" y1="-0.3565" x2="8.0262" y2="20.7898" xlink:href="#l"/><linearGradient id="aw" x1="6.7793" y1="10.0931" x2="19.1197" y2="15.3313" xlink:href="#c"/><linearGradient id="ax" x1="6.9244" y1="-0.3565" x2="6.9244" y2="20.7898" xlink:href="#l"/><linearGradient id="ay" x1="5.943" y1="12.0633" x2="18.2834" y2="17.3015" xlink:href="#c"/><linearGradient id="az" x1="6.5951" y1="-0.3565" x2="6.5951" y2="20.7898" xlink:href="#l"/><linearGradient id="ba" x1="-409.485" y1="-415.7622" x2="-409.5014" y2="-415.8008" xlink:href="#a"/><linearGradient id="bb" x1="6.3739" y1="11.0481" x2="18.7144" y2="16.2863" xlink:href="#c"/><linearGradient id="bc" x1="7.676" y1="-0.3565" x2="7.676" y2="20.7898" xlink:href="#l"/></defs><title>flag-ar</title><path d="M12.0293,3.4362l-.0018.0029Z" transform="translate(0)" style="fill:none"/><polygon points="13.535 1.733 13.535 1.733 13.545 1.725 13.535 1.733 13.535 1.733" style="fill:none"/><path d="M11.8453,3.742c-.021.0372-.0417.0744-.0618.1119C11.8036,3.8164,11.8244,3.7792,11.8453,3.742Z" transform="translate(0)" style="fill:none"/><path d="M12.3151,3.0232l-.0244.0327Z" transform="translate(0)" style="fill:none"/><path d="M12.1627,3.2353l-.0062.0091Z" transform="translate(0)" style="fill:none"/><path d="M8.3,16.6234a2.4,2.4,0,0,0,.22.1721A2.418,2.418,0,0,1,8.3,16.6234Z" transform="translate(0)" style="fill:none"/><path d="M14.7148.8988l-.0354.0195.0354-.0195c.1646-.0955.3319-.1828.5006-.2647.0466-.0226.0934-.0443.14-.0658-.0469.0215-.0935.0432-.14.0658C15.0466.716,14.8794.8033,14.7148.8988Z" transform="translate(0)" style="fill:none"/><path d="M15.3556.5683q.23-.1056.4626-.1931l.0065-.0026-.0065.0026Q15.5856.4624,15.3556.5683Z" transform="translate(0)" style="fill:none"/><path d="M17.7243,0a4.3986,4.3986,0,0,0-.4574.0269A4.4,4.4,0,0,1,17.7243,0Z" transform="translate(0)" style="fill:none"/><path d="M14.1114,1.2875,14.149,1.26c.1733-.1209.35-.236.53-.342-.1806.106-.3571.221-.53.342Z" transform="translate(0)" style="fill:none"/><path d="M16.1893.2467q.1378-.042.2758-.0774c.0336-.0086.067-.0156.1005-.0229-.0335.0073-.0669.0143-.1005.0229Q16.3271.2047,16.1893.2467Z" transform="translate(0)" style="fill:none"/><path d="M15.8973.3443,15.914.3379l.0271-.0093L15.914.3379Z" transform="translate(0)" style="fill:none"/><path d="M16.8113.0942q.1085-.0206.2164-.0366l.0671-.01-.0671.01Q16.92.0736,16.8113.0942Z" transform="translate(0)" style="fill:none"/><path d="M8.2522,16.5771l.02.02-.02-.02q-.0811-.0765-.1542-.16Q8.171,16.5006,8.2522,16.5771Z" transform="translate(0)" style="fill:none"/><path d="M8.8791,17.0047l.0324.0146-.0324-.0146c-.0306-.0147-.06-.0307-.09-.0463l-.0246-.0137.0246.0137C8.8192,16.974,8.8485,16.99,8.8791,17.0047Z" transform="translate(0)" style="fill:none"/><path d="M8.0555,16.366l-.0346-.0427-.02-.0268.02.0268Z" transform="translate(0)" style="fill:none"/><path d="M7.8523,16.0809l-.0015-.0023a2.4025,2.4025,0,0,1-.1229-.2324,2.3806,2.3806,0,0,0,.1229.2324Z" transform="translate(0)" style="fill:none"/><path d="M8.6215,16.8609l-.0188-.0115c-.0279-.0179-.0562-.0352-.0829-.0539.0268.0187.055.036.0829.0539Z" transform="translate(0)" style="fill:none"/><path d="M13.1987,2.0333l.0221-.0205Z" transform="translate(0)" style="fill:none"/><polygon points="13.346 1.899 13.354 1.891 13.35 1.895 13.346 1.899" style="fill:none"/><path d="M11.8938,3.658l.0119-.02-.0024.0039Z" transform="translate(0)" style="fill:none"/><path d="M9.4924,17.2171c.033.0076.067.0137.1007.02.0787.0156.1594.0283.2419.0388q-.1238-.0156-.2419-.0388c-.0336-.0067-.0678-.0128-.1007-.02a3.101,3.101,0,0,1-.3195-.09l-.0072-.0029.0072.0029A3.0939,3.0939,0,0,0,9.4924,17.2171Z" transform="translate(0)" style="fill:none"/><path d="M29.854,0h-12.13a4.4,4.4,0,0,0-.4574.0269C17.2385.03,17.21.0327,17.1818.036s-.058.0074-.087.0117l-.0671.01q-.108.016-.2164.0366T16.5943.14l-.0287.0063c-.0335.0073-.0669.0143-.1005.0229q-.1379.0354-.2758.0774-.1242.038-.2482.0819L15.914.3379l-.0167.0064-.0726.0283-.0065.0026q-.2325.0873-.4626.1931c-.0468.0215-.0936.0432-.14.0658-.1687.0819-.336.1692-.5006.2647l-.0354.0195c-.18.106-.3571.2211-.53.342l-.0376.0272L14.05,1.332q-.216.1555-.4222.3252c-.0276.0228-.0554.045-.0828.068l-.01.008h0c-.0612.0519-.1215.1048-.1813.1581l-.0081.0073c-.0421.0376-.0836.0757-.1249.1142l-.0221.0205q-.0681.0639-.1345.1295l-.0055.0054q-.2074.2061-.3981.4259l-.04.0465q-.088.103-.1721.2085c-.0456.0575-.09.1156-.1335.1741l-.0244.0327q-.0654.089-.128.1794l-.0062.0091q-.0654.0951-.1272.1918l-.0018.0029q-.0629.0986-.1218.1986l-.0119.02c-.0163.028-.0326.0559-.0485.084-.0209.0372-.0417.0744-.0618.1119q-.0671.1246-.1277.2511c-.0356.0742-.0743.1474-.1064.2225L10.5319,6.7111,9.2586,9.6939l-.4.9362.1175.0456.6859-1.7842.4616,1.7842,1.794-.6641-1.135,1.5607,1.5512.9561-1.8771.1627.14,1.8561L9.392,13.1887,8.0158,14.5472,8.39,12.6911l-.3957-.0346-.1392.3261c-.0325.0758-.0565.15-.0846.2248a3.88,3.88,0,0,0-.2514,1.9178l.0056.0329q.0069.0389.0144.0773l.0031.0156c.0118.0615.0252.1221.0409.1814.01.0366.02.073.03.1089l.0043.0145c.021.0665.0454.131.0713.1945l.0076.02c.0079.02.0158.04.0243.06l.0047.0114.0024.0047a2.4025,2.4025,0,0,0,.1229.2324l.0015.0023c.0186.0309.039.06.0589.09.0284.0429.0584.0845.09.1253l.02.0268.0346.0427c.0115.0142.0227.0288.0347.0427l.0078.0085q.0732.0834.1542.16l.02.02.02.02.0071.0059a2.418,2.418,0,0,0,.22.1721c.0267.0187.055.036.0829.0539l.0188.0115q.07.0439.1433.0838l.0246.0137c.03.0156.0591.0316.09.0463l.0324.0146c.0767.0358.1554.0694.2378.0988l.0164.0065.0072.0029a3.101,3.101,0,0,0,.3195.09c.0329.0076.0671.0137.1007.02q.1181.0234.2419.0388l.0167.0023.0822.01.0248.0029c.122.0113.2465.019.376.019h7.9525a7.4455,7.4455,0,0,0,6.1748-4.3275L30,0Zm-11.81,6.8411-.657-.1154-.1234.6692-.2869-.5913-.5961.3537.2991-.6218-.62-.2278.66-.1849-.1769-.6381.5237.3919.3993-.5676-.0069.6732.6751-.07-.5324.4473Zm1.6851,6.6924-.6569-.1152-.1234.6692-.2868-.5914-.5963.3539.2992-.6218L17.7447,13l.66-.1847-.1774-.638.5241.3918.3992-.5674-.0068.6729.6748-.0694-.5321.4472Zm2.1146-4.19-.0345.4319-.277-.3142-.421.1267.2307-.3792-.2256-.354.4195.08.2817-.345.0285.4285.4.14Zm1.0462-5.47-.6569-.1151-.1233.6692-.287-.5912-.5963.3539.2992-.622-.62-.2281.66-.1844-.1771-.6382.524.3917.3993-.5674-.0068.6728.6748-.07-.5323.4476Z" transform="translate(0)" style="fill:url(#a)"/><polygon points="19.144 12.675 19.151 12.002 18.752 12.569 18.228 12.177 18.405 12.815 17.745 13 18.365 13.228 18.066 13.85 18.662 13.496 18.949 14.088 19.072 13.418 19.729 13.534 19.287 13.052 19.819 12.605 19.144 12.675" style="fill:url(#b)"/><polygon points="19.144 12.675 19.151 12.002 18.752 12.569 18.228 12.177 18.405 12.815 17.745 13 18.365 13.228 18.066 13.85 18.662 13.496 18.949 14.088 19.072 13.418 19.729 13.534 19.287 13.052 19.819 12.605 19.144 12.675" style="fill:url(#c)"/><polygon points="17.459 5.982 17.466 5.309 17.066 5.877 16.543 5.485 16.72 6.123 16.06 6.308 16.68 6.536 16.38 7.157 16.977 6.804 17.263 7.395 17.387 6.726 18.044 6.841 17.602 6.36 18.134 5.913 17.459 5.982" style="fill:url(#d)"/><polygon points="17.459 5.982 17.466 5.309 17.066 5.877 16.543 5.485 16.72 6.123 16.06 6.308 16.68 6.536 16.38 7.157 16.977 6.804 17.263 7.395 17.387 6.726 18.044 6.841 17.602 6.36 18.134 5.913 17.459 5.982" style="fill:url(#e)"/><polygon points="8.39 12.691 8.016 14.547 9.392 13.189 10.598 14.547 10.457 12.691 12.334 12.528 10.783 11.572 11.918 10.012 10.124 10.676 9.662 8.891 8.976 10.676 8.859 10.63 7.994 12.656 8.39 12.691" style="fill:url(#f)"/><polygon points="8.39 12.691 8.016 14.547 9.392 13.189 10.598 14.547 10.457 12.691 12.334 12.528 10.783 11.572 11.918 10.012 10.124 10.676 9.662 8.891 8.976 10.676 8.859 10.63 7.994 12.656 8.39 12.691" style="fill:url(#g)"/><polygon points="21.817 8.59 21.536 8.935 21.116 8.855 21.342 9.209 21.111 9.588 21.532 9.462 21.809 9.776 21.844 9.344 22.245 9.159 21.846 9.018 21.817 8.59" style="fill:url(#h)"/><polygon points="21.817 8.59 21.536 8.935 21.116 8.855 21.342 9.209 21.111 9.588 21.532 9.462 21.809 9.776 21.844 9.344 22.245 9.159 21.846 9.018 21.817 8.59" style="fill:url(#i)"/><polygon points="22.305 3.015 22.312 2.343 21.913 2.91 21.389 2.518 21.566 3.156 20.906 3.341 21.526 3.569 21.226 4.191 21.823 3.837 22.11 4.428 22.233 3.759 22.89 3.874 22.448 3.393 22.98 2.946 22.305 3.015" style="fill:url(#j)"/><polygon points="22.305 3.015 22.312 2.343 21.913 2.91 21.389 2.518 21.566 3.156 20.906 3.341 21.526 3.569 21.226 4.191 21.823 3.837 22.11 4.428 22.233 3.759 22.89 3.874 22.448 3.393 22.98 2.946 22.305 3.015" style="fill:url(#k)"/><path d="M10.856,0h-.6106a6.2168,6.2168,0,0,0-3.114.9567L9.6943,2.6Z" transform="translate(0)" style="fill:url(#l)"/><path d="M5.0375,2.7573q-.0951.1161-.1848.2354h.5488Z" transform="translate(0)" style="fill:url(#m)"/><path d="M13.3538,1.8913q.09-.08.1813-.158h0l.01-.008c.0274-.0229.0553-.0453.0828-.068q.2061-.17.4222-.3252l.0615-.0445L14.149,1.26c.1733-.121.35-.236.53-.342l.0354-.0195c.1646-.0955.3318-.1828.5006-.2647.0467-.0226.0933-.0443.14-.0658q.23-.1056.4626-.1931l.0065-.0026.0726-.0283L15.914.3379l.0271-.0093q.1239-.0438.2482-.0819.1378-.042.2758-.0774c.0336-.0086.067-.0156.1005-.0229L16.5943.14q.1087-.0253.217-.0459t.2164-.0366l.0671-.01c.029-.0043.058-.0083.087-.0117s.0567-.0062.0851-.0091A4.3986,4.3986,0,0,1,17.7243,0h-3.528L13.35,1.895Z" transform="translate(0)" style="fill:url(#n)"/><path d="M13.5351,1.7333q-.0918.0777-.1813.158C13.4136,1.838,13.4739,1.7851,13.5351,1.7333Z" transform="translate(0)" style="fill:url(#o)"/><path d="M13.5351,1.7333q-.0918.0777-.1813.158C13.4136,1.838,13.4739,1.7851,13.5351,1.7333Z" transform="translate(0)" style="fill:url(#p)"/><path d="M9.835,17.2763c-.0825-.0105-.1632-.0232-.2419-.0388-.0337-.0067-.0677-.0128-.1007-.02a3.0939,3.0939,0,0,1-.3195-.09l-.0072-.0029-.0164-.0065c-.0824-.0294-.1611-.063-.2378-.0988l-.0324-.0146c-.0306-.0147-.06-.0307-.09-.0463l-.0246-.0137q-.0736-.04-.1433-.0838l-.0188-.0115c-.0279-.0179-.0561-.0352-.0829-.0539a2.4,2.4,0,0,1-.22-.1721l-.0071-.0059-.02-.02-.02-.02q-.0811-.0765-.1542-.16L8.09,16.4087c-.012-.0139-.0232-.0285-.0347-.0427l-.0346-.0427-.02-.0268c-.0311-.0408-.0611-.0825-.09-.1253-.02-.03-.04-.0594-.0589-.09l-.0015-.0023a2.3806,2.3806,0,0,1-.1229-.2324l-.0024-.0047L7.7208,15.83c-.0085-.02-.0164-.04-.0243-.06l-.0076-.02c-.0259-.0635-.05-.128-.0713-.1945l-.0043-.0145c-.0109-.0359-.0209-.0723-.03-.1089-.0157-.0593-.0291-.12-.0409-.1814l-.0031-.0156q-.0075-.0384-.0144-.0773l-.0056-.0329c-.069-.47-.2807-1.1126.1125-1.5519-.1511.1687-.3363-.2351-.3909-.9829l-.7073-.062.6915-.3955a8.6494,8.6494,0,0,1,.2109-1.8394l-.17-.2819.2157.0837q.0482-.198.1069-.4014H6.525l1.3211-2.957L2.03,9.1083.3758,12.9826c-1.016,2.38.1,4.3275,2.48,4.3275h7.4787c-.13,0-.254-.0077-.376-.019l-.0248-.0029-.0822-.01Z" transform="translate(0)" style="fill:url(#q)"/><polygon points="3.21 6.344 3.062 6.689 3.904 6.344 3.21 6.344" style="fill:url(#r)"/><path d="M7.6889,15.75l.0076.02-.0076-.02c-.0259-.0635-.05-.128-.0713-.1945l-.0043-.0145.0043.0145C7.6386,15.6223,7.663,15.6868,7.6889,15.75Z" transform="translate(0)" style="fill:url(#s)"/><path d="M7.6889,15.75l.0076.02-.0076-.02c-.0259-.0635-.05-.128-.0713-.1945l-.0043-.0145.0043.0145C7.6386,15.6223,7.663,15.6868,7.6889,15.75Z" transform="translate(0)" style="fill:url(#t)"/><path d="M7.6313,13.5733c-.3932.4393-.1815,1.0819-.1125,1.5519l.0056.0329-.0056-.0329A3.88,3.88,0,0,1,7.77,13.2074c.0281-.0749.0521-.149.0846-.2248l.1392-.3261L7.24,12.59C7.295,13.3382,7.48,13.742,7.6313,13.5733Z" transform="translate(0)" style="fill:url(#u)"/><path d="M7.6313,13.5733c-.3932.4393-.1815,1.0819-.1125,1.5519l.0056.0329-.0056-.0329A3.88,3.88,0,0,1,7.77,13.2074c.0281-.0749.0521-.149.0846-.2248l.1392-.3261L7.24,12.59C7.295,13.3382,7.48,13.742,7.6313,13.5733Z" transform="translate(0)" style="fill:url(#v)"/><path d="M7.4355,10.2935a8.6494,8.6494,0,0,0-.2109,1.8394l.98-.5606Z" transform="translate(0)" style="fill:url(#w)"/><path d="M7.4355,10.2935a8.6494,8.6494,0,0,0-.2109,1.8394l.98-.5606Z" transform="translate(0)" style="fill:url(#x)"/><path d="M7.5828,15.4324c-.0157-.0593-.0291-.12-.0409-.1814l-.0031-.0156.0031.0156C7.5537,15.3125,7.5671,15.3731,7.5828,15.4324Z" transform="translate(0)" style="fill:url(#y)"/><path d="M7.5828,15.4324c-.0157-.0593-.0291-.12-.0409-.1814l-.0031-.0156.0031.0156C7.5537,15.3125,7.5671,15.3731,7.5828,15.4324Z" transform="translate(0)" style="fill:url(#z)"/><path d="M9.835,17.2763l.0167.0023.0822.01-.0822-.01Z" transform="translate(0)" style="fill:url(#aa)"/><path d="M9.835,17.2763l.0167.0023.0822.01-.0822-.01Z" transform="translate(0)" style="fill:url(#ab)"/><path d="M17.0948.0477c.029-.0043.058-.0083.087-.0117s.0567-.0062.0851-.0091C17.2385.03,17.21.0327,17.1818.036S17.1238.0434,17.0948.0477Z" transform="translate(0)" style="fill:url(#ac)"/><path d="M17.0948.0477c.029-.0043.058-.0083.087-.0117s.0567-.0062.0851-.0091C17.2385.03,17.21.0327,17.1818.036S17.1238.0434,17.0948.0477Z" transform="translate(0)" style="fill:url(#ad)"/><polygon points="7.728 15.846 7.726 15.841 7.721 15.83 7.726 15.841 7.728 15.846" style="fill:url(#ae)"/><polygon points="7.728 15.846 7.726 15.841 7.721 15.83 7.726 15.841 7.728 15.846" style="fill:url(#af)"/><path d="M16.5656.1464,16.5943.14q.1087-.0253.217-.0459-.1083.0207-.217.0459Z" transform="translate(0)" style="fill:url(#ag)"/><path d="M16.5656.1464,16.5943.14q.1087-.0253.217-.0459-.1083.0207-.217.0459Z" transform="translate(0)" style="fill:url(#ah)"/><path d="M7.5884,9.6939q-.0589.2033-.1069.4014L8.859,10.63l.4-.9362h-1.67Z" transform="translate(0)" style="fill:url(#ai)"/><path d="M7.5884,9.6939q-.0589.2033-.1069.4014L8.859,10.63l.4-.9362h-1.67Z" transform="translate(0)" style="fill:url(#aj)"/><path d="M13.6277,1.6572c-.0275.0227-.0554.0451-.0828.068.0274-.023.0552-.0452.0828-.068q.2064-.17.4222-.3252l.0615-.0445L14.05,1.332Q13.8341,1.4876,13.6277,1.6572Z" transform="translate(0)" style="fill:url(#ak)"/><path d="M13.6277,1.6572c-.0275.0227-.0554.0451-.0828.068.0274-.023.0552-.0452.0828-.068q.2064-.17.4222-.3252l.0615-.0445L14.05,1.332Q13.8341,1.4876,13.6277,1.6572Z" transform="translate(0)" style="fill:url(#al)"/><path d="M8.0007,16.2965c-.0311-.0408-.0611-.0824-.09-.1253-.02-.03-.04-.0594-.0589-.09.0186.0309.039.06.0589.09C7.94,16.214,7.97,16.2557,8.0007,16.2965Z" transform="translate(0)" style="fill:url(#am)"/><path d="M8.0007,16.2965c-.0311-.0408-.0611-.0824-.09-.1253-.02-.03-.04-.0594-.0589-.09.0186.0309.039.06.0589.09C7.94,16.214,7.97,16.2557,8.0007,16.2965Z" transform="translate(0)" style="fill:url(#an)"/><path d="M16.1893.2467q-.1242.038-.2482.0819Q16.065.2848,16.1893.2467Z" transform="translate(0)" style="fill:url(#ao)"/><path d="M16.1893.2467q-.1242.038-.2482.0819Q16.065.2848,16.1893.2467Z" transform="translate(0)" style="fill:url(#ap)"/><path d="M9.1657,17.1246l-.0164-.0065c-.0824-.0294-.1611-.063-.2378-.0988.0767.0358.1554.0694.2378.0988Z" transform="translate(0)" style="fill:url(#aq)"/><path d="M9.1657,17.1246l-.0164-.0065c-.0824-.0294-.1611-.063-.2378-.0988.0767.0358.1554.0694.2378.0988Z" transform="translate(0)" style="fill:url(#ar)"/><path d="M15.8973.3443l-.0726.0283" transform="translate(0)" style="fill:none"/><path d="M8.7648,16.9447q-.0736-.04-.1433-.0838" transform="translate(0)" style="fill:none"/><path d="M8.3,16.6234l-.0071-.0059-.02-.02.02.02Z" transform="translate(0)" style="fill:url(#as)"/><path d="M8.3,16.6234l-.0071-.0059-.02-.02.02.02Z" transform="translate(0)" style="fill:url(#at)"/><path d="M8.098,16.4172,8.09,16.4087c-.012-.0139-.0232-.0285-.0347-.0427.0115.0142.0227.0288.0347.0427Z" transform="translate(0)" style="fill:url(#au)"/><path d="M8.098,16.4172,8.09,16.4087c-.012-.0139-.0232-.0285-.0347-.0427.0115.0142.0227.0288.0347.0427Z" transform="translate(0)" style="fill:url(#av)"/><path d="M7.2658,10.0116l.17.2819q.0216-.0983.046-.1982Z" transform="translate(0)" style="fill:url(#aw)"/><path d="M7.2658,10.0116l.17.2819q.0216-.0983.046-.1982Z" transform="translate(0)" style="fill:url(#ax)"/><path d="M6.5331,12.5284l.7073.062c-.01-.1408-.0159-.2938-.0158-.4575Z" transform="translate(0)" style="fill:url(#ay)"/><path d="M6.5331,12.5284l.7073.062c-.01-.1408-.0159-.2938-.0158-.4575Z" transform="translate(0)" style="fill:url(#az)"/><path d="M7.4355,10.2935l.7692,1.2788-.98.5606c0,.1637.0055.3167.0158.4575l.7536.0661L8.859,10.63l-1.3775-.5348Q7.4572,10.1952,7.4355,10.2935Z" transform="translate(0)" style="fill:url(#ba)"/><path d="M7.4355,10.2935l.7692,1.2788-.98.5606c0,.1637.0055.3167.0158.4575l.7536.0661L8.859,10.63l-1.3775-.5348Q7.4572,10.1952,7.4355,10.2935Z" transform="translate(0)" style="fill:url(#bb)"/><path d="M7.4355,10.2935l.7692,1.2788-.98.5606c0,.1637.0055.3167.0158.4575l.7536.0661L8.859,10.63l-1.3775-.5348Q7.4572,10.1952,7.4355,10.2935Z" transform="translate(0)" style="fill:url(#bc)"/><path d="M11.9057,3.6377q.059-.1.1218-.1986l.0018-.0029q.0618-.0967.1272-.1918l.0062-.0091q.0624-.0906.128-.1794l.0244-.0327c.0436-.0585.0879-.1166.1335-.1741q.0838-.1056.1721-.2085l.04-.0465q.19-.2195.3981-.4259l.0055-.0054q.0663-.0657.1345-.1295l.0221-.0205c.0413-.0385.0828-.0766.1249-.1142l.004-.0036L14.1963,0H13.53l-1.627,3.6416Z" transform="translate(0)" style="fill:#fff"/><path d="M11.5676,0H10.856L9.6943,2.6,7.1314.9567a8.2081,8.2081,0,0,0-1.1425.8271L7.8743,2.995H6.256l-.9125-.5884q-.1587.1711-.306.3507l.364.2354H4.8527a6.7978,6.7978,0,0,0-.4615.6953H9.92Z" transform="translate(0)" style="fill:#fff"/><polygon points="6.525 9.694 7.237 9.694 9.043 5.651 3.506 5.651 3.21 6.344 3.904 6.344 3.062 6.689 2.543 7.906 6.364 6.344 7.968 6.344 2.204 8.699 2.03 9.108 7.846 6.737 6.525 9.694" style="fill:#fff"/><polygon points="9.259 9.694 10.532 6.711 9.199 9.694 9.259 9.694" style="fill:#fff"/><path d="M7.8743,2.995,5.9889,1.7838a8.08,8.08,0,0,0-.6454.6228l.9125.5884Z" transform="translate(0)" style="fill:#db2f34"/><polygon points="6.364 6.344 2.543 7.906 2.204 8.699 7.968 6.344 6.364 6.344" style="fill:#db2f34"/><path d="M7.2365,9.6939H9.1993l1.3326-2.9828,1.0175-2.3836c.0321-.0751.0708-.1483.1064-.2225q.06-.1265.1277-.2511c.02-.0375.0408-.0747.0618-.1119.0159-.0281.0322-.056.0485-.084l.0095-.0164L13.53,0H11.5676L9.92,3.688H4.3912a6.0045,6.0045,0,0,0-.3207.6395L3.5057,5.6507H9.0429Z" transform="translate(0)" style="fill:#db2f34"/></svg>