<svg xmlns="http://www.w3.org/2000/svg" xmlns:xlink="http://www.w3.org/1999/xlink" viewBox="0 0 30 17.31"><defs><linearGradient id="a" x1="9.537" y1="7.47" x2="25.675" y2="13.344" gradientTransform="matrix(1, 0, -0.063, 1, -1.093, 0)" gradientUnits="userSpaceOnUse"><stop offset="0" stop-color="#4f4f4e"/><stop offset="0.068" stop-color="#787878"/><stop offset="0.139" stop-color="#9c9c9c"/><stop offset="0.218" stop-color="#bbbbba"/><stop offset="0.303" stop-color="#d4d4d4"/><stop offset="0.398" stop-color="#e7e7e7"/><stop offset="0.507" stop-color="#f5f5f5"/><stop offset="0.644" stop-color="#fdfdfd"/><stop offset="0.897" stop-color="#fff"/></linearGradient><linearGradient id="b" x1="14.395" y1="0.242" x2="29.063" y2="5.58" gradientTransform="matrix(1, 0, -0.063, 1, -1.093, 0)" gradientUnits="userSpaceOnUse"><stop offset="0" stop-color="#5a0a00"/><stop offset="0.084" stop-color="#7b0905"/><stop offset="0.186" stop-color="#9a0809"/><stop offset="0.296" stop-color="#b5070d"/><stop offset="0.417" stop-color="#c9070f"/><stop offset="0.555" stop-color="#d70611"/><stop offset="0.721" stop-color="#df0613"/><stop offset="1" stop-color="#e20613"/></linearGradient><linearGradient id="c" x1="-409.5" y1="-415.786" x2="-409.458" y2="-415.786" gradientTransform="matrix(25.74, -409.123, -409.123, 0, -159553.217, -167518.668)" gradientUnits="userSpaceOnUse"><stop offset="0" stop-color="#e20613"/><stop offset="0.285" stop-color="#e00613"/><stop offset="0.451" stop-color="#d70612"/><stop offset="0.587" stop-color="#c90710"/><stop offset="0.706" stop-color="#b5070d"/><stop offset="0.815" stop-color="#9b0809"/><stop offset="0.914" stop-color="#7c0905"/><stop offset="1" stop-color="#5a0a00"/></linearGradient><linearGradient id="d" x1="19.038" y1="21.692" x2="12.524" y2="10.276" gradientTransform="matrix(1, 0, -0.063, 1, -1.093, 0)" gradientUnits="userSpaceOnUse"><stop offset="0" stop-color="#64bdeb"/><stop offset="0.199" stop-color="#4c9fc9"/><stop offset="0.575" stop-color="#236b8e"/><stop offset="0.853" stop-color="#0a4b6a"/><stop offset="1" stop-color="#003f5c"/></linearGradient><linearGradient id="e" x1="-409.5" y1="-415.807" x2="-409.458" y2="-415.807" xlink:href="#c"/><linearGradient id="f" x1="29.297" y1="15.771" x2="22.934" y2="4.62" xlink:href="#d"/><linearGradient id="g" x1="-409.5" y1="-415.795" x2="-409.458" y2="-415.795" xlink:href="#c"/><linearGradient id="h" x1="26.438" y1="17.335" x2="8.661" y2="-0.64" gradientTransform="matrix(1, 0, -0.063, 1, -1.093, 0)" gradientUnits="userSpaceOnUse"><stop offset="0" stop-color="#e42616"/><stop offset="0.179" stop-color="#cb2414"/><stop offset="0.552" stop-color="#9b2212"/><stop offset="0.838" stop-color="#7e2010"/><stop offset="1" stop-color="#731f0f"/></linearGradient><linearGradient id="i" x1="10.413" y1="17.31" x2="10.413" gradientTransform="matrix(1, 0, -0.063, 1, -1.093, 0)" gradientUnits="userSpaceOnUse"><stop offset="0" stop-color="#5c1906"/><stop offset="0.005" stop-color="#5e1906"/><stop offset="0.09" stop-color="#821d0a"/><stop offset="0.181" stop-color="#a01f0e"/><stop offset="0.283" stop-color="#b92211"/><stop offset="0.396" stop-color="#cc2413"/><stop offset="0.527" stop-color="#da2515"/><stop offset="0.691" stop-color="#e22616"/><stop offset="1" stop-color="#e42616"/></linearGradient></defs><title>flay-uk</title><path d="M7.519,15.125c.006.043.015.084.023.126.012.061.025.122.041.181.011.042.022.083.035.124.021.066.045.131.071.194.012.031.023.062.037.091a2.342,2.342,0,0,0,.125.238c.019.031.04.061.06.092.035.052.071.1.11.152.022.029.045.058.069.086l.046.05,3.451-7,8.405,7.552a7.449,7.449,0,0,0,1.674-.823l-9.255-8.4v0h4.473l7.129,6.048a6.122,6.122,0,0,0,.448-.85l.41-.962L19.637,7.785h7.042l.838-1.963H10.906c-1.215,2.8-3.078,7.074-3.257,7.752A3.107,3.107,0,0,0,7.519,15.125Z" style="fill:url(#a)"/><path d="M30,0H17.724a4.758,4.758,0,0,0-.542.036c-.051.006-.1.014-.154.022-.144.021-.289.048-.434.082-.043.01-.086.018-.129.029-.184.048-.368.1-.551.169-.032.011-.064.025-.1.037-.155.058-.309.123-.462.193l-.141.066c-.168.082-.336.169-.5.265l-.036.019c-.18.106-.357.221-.53.342l-.1.072q-.216.156-.422.325l-.093.076c-.164.139-.324.284-.476.435a7.072,7.072,0,0,0-1.4,1.937c-.03.062-.117.247-.09.185-.176.413-.4.94-.66,1.532H27.517Z" style="fill:url(#b)"/><path d="M8.136,16.459c.038.041.076.08.116.118.014.013.027.028.041.04a2.2,2.2,0,0,0,.227.178c.027.019.055.037.083.054.06.039.122.075.186.109.03.016.059.032.09.047a2.834,2.834,0,0,0,.27.113l.024.009a2.872,2.872,0,0,0,.319.09c.033.008.067.014.1.02.084.017.17.031.259.042.035,0,.07.009.107.012.122.011.246.019.376.019h7.952a5.364,5.364,0,0,0,1.705-.3L11.587,9.459Z" style="fill:url(#c)"/><path d="M8.136,16.459c.038.041.076.08.116.118.014.013.027.028.041.04a2.2,2.2,0,0,0,.227.178c.027.019.055.037.083.054.06.039.122.075.186.109.03.016.059.032.09.047a2.834,2.834,0,0,0,.27.113l.024.009a2.872,2.872,0,0,0,.319.09c.033.008.067.014.1.02.084.017.17.031.259.042.035,0,.07.009.107.012.122.011.246.019.376.019h7.952a5.364,5.364,0,0,0,1.705-.3l-8.606-7.73Z" style="fill:url(#d)"/><polygon points="24.872 12.021 26.679 7.785 19.637 7.785 24.872 12.021" style="fill:url(#e)"/><polygon points="24.872 12.021 26.679 7.785 19.637 7.785 24.872 12.021" style="fill:url(#f)"/><path d="M12.412,7.785v0l9.255,8.4a7.892,7.892,0,0,0,2.348-2.355L16.885,7.785Z" style="fill:url(#g)"/><path d="M12.412,7.785v0l9.255,8.4a7.892,7.892,0,0,0,2.348-2.355L16.885,7.785Z" style="fill:url(#h)"/><path d="M17.663,0H10.245A7.443,7.443,0,0,0,4.071,4.328L.376,12.983c-1.016,2.38.1,4.327,2.48,4.327h7.479c-.13,0-.254-.008-.376-.019-.037,0-.072-.008-.107-.012-.089-.011-.175-.025-.259-.042-.034-.006-.068-.012-.1-.02a3.1,3.1,0,0,1-.319-.089l-.024-.01a2.834,2.834,0,0,1-.27-.113c-.031-.015-.06-.031-.09-.047-.064-.034-.126-.07-.186-.109-.028-.017-.056-.035-.083-.054a2.2,2.2,0,0,1-.227-.178c-.014-.012-.027-.027-.041-.04q-.086-.081-.162-.168c-.024-.028-.046-.057-.069-.086-.039-.049-.075-.1-.11-.152-.02-.031-.041-.061-.06-.092a2.241,2.241,0,0,1-.125-.238c-.014-.029-.025-.06-.037-.091-.026-.063-.05-.128-.071-.194-.013-.041-.024-.082-.035-.124-.016-.059-.029-.119-.041-.181-.008-.042-.017-.083-.023-.126a3.883,3.883,0,0,1,.251-1.918c.028-.075.052-.149.085-.224l3.694-8.655c.033-.076.071-.149.107-.223a7.072,7.072,0,0,1,1.4-1.937c.152-.151.312-.3.476-.435l.093-.076q.206-.169.422-.325l.1-.072c.173-.121.35-.236.53-.342L14.715.9c.164-.1.332-.183.5-.265l.141-.066c.153-.07.307-.135.462-.193.032-.012.064-.026.1-.037q.275-.1.551-.169c.043-.011.086-.019.129-.029.145-.034.29-.061.434-.082.051-.008.1-.016.154-.022A4.742,4.742,0,0,1,17.724,0Z" style="fill:url(#i)"/></svg>