<svg xmlns="http://www.w3.org/2000/svg" xmlns:xlink="http://www.w3.org/1999/xlink" viewBox="0 0 30 17.31"><defs><linearGradient id="a" x1="4.982" y1="9.974" x2="26.251" y2="17.715" gradientTransform="matrix(1, 0, -0.063, 1, -2.695, 0)" gradientUnits="userSpaceOnUse"><stop offset="0.066" stop-color="#770f00"/><stop offset="0.104" stop-color="#800e02"/><stop offset="0.281" stop-color="#a30b08"/><stop offset="0.46" stop-color="#bf090d"/><stop offset="0.639" stop-color="#d30710"/><stop offset="0.819" stop-color="#df0612"/><stop offset="1" stop-color="#e30613"/></linearGradient><linearGradient id="b" x1="18.104" y1="11.552" x2="18.104" y2="5.822" gradientTransform="matrix(1, 0, -0.063, 1, -2.695, 0)" gradientUnits="userSpaceOnUse"><stop offset="0" stop-color="#ffec00"/><stop offset="0.31" stop-color="#feea00"/><stop offset="0.481" stop-color="#f9e200"/><stop offset="0.619" stop-color="#f1d400"/><stop offset="0.738" stop-color="#e6c000"/><stop offset="0.846" stop-color="#d8a700"/><stop offset="0.944" stop-color="#c68800"/><stop offset="1" stop-color="#ba7300"/></linearGradient><linearGradient id="c" x1="7.033" y1="9.232" x2="7.033" y2="6.306" gradientUnits="userSpaceOnUse"><stop offset="0" stop-color="#fff"/><stop offset="0.083" stop-color="#f8f8f8"/><stop offset="0.206" stop-color="#e4e4e3"/><stop offset="0.354" stop-color="#c3c3c2"/><stop offset="0.523" stop-color="#959594"/><stop offset="0.705" stop-color="#5b5b5a"/><stop offset="0.879" stop-color="#1d1d1b"/></linearGradient><linearGradient id="d" x1="12.571" y1="6.243" x2="12.376" y2="5.709" gradientTransform="matrix(1, 0, 0, 1, 0, 0)" xlink:href="#b"/><linearGradient id="e" x1="8.483" y1="5.455" x2="11.01" y2="5.455" gradientTransform="matrix(1, 0, 0, 1, 0, 0)" xlink:href="#b"/><linearGradient id="f" x1="10.687" y1="10.144" x2="8.965" y2="5.41" gradientUnits="userSpaceOnUse"><stop offset="0" stop-color="#fff"/><stop offset="0.37" stop-color="#fdfdfd"/><stop offset="0.516" stop-color="#f6f6f6"/><stop offset="0.623" stop-color="#eaeaea"/><stop offset="0.71" stop-color="#d9d9d9"/><stop offset="0.785" stop-color="#c2c2c2"/><stop offset="0.852" stop-color="#a7a7a7"/><stop offset="0.879" stop-color="#999"/></linearGradient><linearGradient id="g" x1="9.277" y1="8.028" x2="8.399" y2="5.616" gradientUnits="userSpaceOnUse"><stop offset="0" stop-color="#e30520"/><stop offset="1" stop-color="#780e05"/></linearGradient><linearGradient id="h" x1="8.954" y1="7.383" x2="8.61" y2="6.436" gradientUnits="userSpaceOnUse"><stop offset="0" stop-color="#ffec00"/><stop offset="1" stop-color="#a66700"/></linearGradient><linearGradient id="i" x1="11.186" y1="7.711" x2="10.541" y2="5.938" gradientUnits="userSpaceOnUse"><stop offset="0" stop-color="#5e2482"/><stop offset="1" stop-color="#3c1151"/></linearGradient><linearGradient id="j" x1="12.586" y1="5.832" x2="12.35" y2="5.186" gradientTransform="matrix(1, 0, 0, 1, 0, 0)" xlink:href="#b"/><linearGradient id="k" x1="8.64" y1="-0.075" x2="29.907" y2="7.665" gradientTransform="matrix(1, 0, -0.063, 1, -2.695, 0)" gradientUnits="userSpaceOnUse"><stop offset="0" stop-color="#e20613"/><stop offset="0.214" stop-color="#df0613"/><stop offset="0.378" stop-color="#d50611"/><stop offset="0.526" stop-color="#c5060f"/><stop offset="0.664" stop-color="#ae070c"/><stop offset="0.795" stop-color="#900708"/><stop offset="0.92" stop-color="#6c0804"/><stop offset="1" stop-color="#500800"/></linearGradient></defs><title>flag-es</title><path d="M5.068,11.553H5.035A2.651,2.651,0,0,1,2.383,8.81c0-.039,0-.078,0-.118a2.922,2.922,0,0,1,.181-.847L1,11.552.245,13.319a4.231,4.231,0,0,0-.238,1.134A2.592,2.592,0,0,0,2.856,17.31H18.287a7.446,7.446,0,0,0,6.175-4.327l.61-1.43Z" transform="translate(0)" style="fill:url(#a)"/><path d="M5.428,5.832a3.09,3.09,0,0,0-2.75,1.757l-.109.256a2.922,2.922,0,0,0-.181.847c0,.04,0,.079,0,.118a2.651,2.651,0,0,0,2.652,2.742H25.072l2.445-5.73Z" transform="translate(0)" style="fill:url(#b)"/><path d="M6.725,5.682a.218.218,0,0,1-.148-.3c.054-.123.294-.157.456-.123.163-.036.4,0,.456.123a.219.219,0,0,1-.149.3A1.455,1.455,0,0,0,6.725,5.682Z" transform="translate(0)" style="fill:#e30520;stroke:#000;stroke-width:0.0038787037146843883px"/><path d="M7.031,5.524a.442.442,0,0,1,.278-.267.085.085,0,0,1,.055.009c.03.013.035.016.03.025a.041.041,0,0,0-.026,0,.5.5,0,0,0-.309.29A.063.063,0,0,1,7.031,5.524Z" transform="translate(0)" style="fill:#ffec00;stroke:#000;stroke-width:0.0038787037146843883px"/><path d="M7.034,5.524a.44.44,0,0,0-.278-.267.082.082,0,0,0-.054.009c-.031.013-.036.016-.031.025a.04.04,0,0,1,.026,0,.5.5,0,0,1,.31.29A.064.064,0,0,0,7.034,5.524Z" transform="translate(0)" style="fill:#ffec00;stroke:#000;stroke-width:0.0038787037146843883px"/><path d="M7.348,5.745l0,.008c0,.028-.143.051-.319.051s-.318-.023-.318-.051l0-.008c.008-.009,0-.047-.01-.065-.02,0-.041-.015,0-.024a1.737,1.737,0,0,1,.325-.038,1.759,1.759,0,0,1,.325.038c.04.009.02.028,0,.024C7.35,5.7,7.341,5.736,7.348,5.745Z" transform="translate(0)" style="fill:#ffec00;stroke:#000;stroke-width:0.0038787037146843883px"/><path d="M7.033,5.229,7,5.275a.16.16,0,0,1,.017.084c0,.029,0,.056.021.056s.021-.027.021-.056a.171.171,0,0,1,.016-.084Z" transform="translate(0)" style="fill:#ffec00;stroke:#000;stroke-width:0.0038787037146843883px"/><path d="M7.033,5.59a.071.071,0,0,1-.112.006.066.066,0,0,1-.109.013.068.068,0,0,1-.1.026c-.016.044-.083.02-.117-.037s-.054-.052-.07-.037c-.016-.064.059-.053.082,0l.039-.026,0,.017h.032l-.019.027.008.019L6.625,5.6c.036.044.072.033.082-.01a.058.058,0,0,0,.06.028.045.045,0,0,0,.026-.063L6.741,5.6l0-.029-.033,0,.027-.019-.011-.027.065.013L6.74,5.482l.025,0,.011-.033.026.024.024-.008-.016.07.051-.042,0,.028.034,0-.028.019.012.026-.066-.013a.057.057,0,0,0,.056.054.079.079,0,0,0,.051-.054.056.056,0,0,0,.056.038.051.051,0,0,0,.041-.064l-.064.03,0-.03-.033-.012L6.96,5.5l0-.03.064.03-.034-.068.027,0L7.033,5.4l.021.032.027,0L7.046,5.5l.064-.03,0,.03.033.013-.033.012,0,.03-.064-.03a.051.051,0,0,0,.041.064.056.056,0,0,0,.056-.038.079.079,0,0,0,.051.054.056.056,0,0,0,.056-.054l-.065.013L7.2,5.539,7.169,5.52l.033,0,0-.028.052.042-.017-.07.025.008.025-.024.011.033.025,0-.047.053.065-.013-.011.027.028.019-.034,0,0,.029-.051-.042a.044.044,0,0,0,.025.063.057.057,0,0,0,.06-.028c.01.043.046.054.082.01L7.392,5.6,7.4,5.577l-.02-.027h.033l0-.017.039.026c.023-.051.1-.062.082,0-.016-.015-.036-.02-.07.037s-.1.081-.117.037a.068.068,0,0,1-.1-.026A.066.066,0,0,1,7.144,5.6.07.07,0,0,1,7.033,5.59Z" transform="translate(0)" style="fill:#ffec00;stroke:#000;stroke-width:0.0038787037146843883px"/><path d="M7.033,5.791a.625.625,0,0,1-.287-.035.61.61,0,0,1,.287-.035.607.607,0,0,1,.287.035A.622.622,0,0,1,7.033,5.791Z" transform="translate(0)" style="fill:#e30520;stroke:#000;stroke-width:0.0038787037146843883px"/><path d="M7.033,5.257a.048.048,0,0,1,0-.095.048.048,0,1,1,0,.095Z" transform="translate(0)" style="fill:#004995;stroke:#000;stroke-width:0.0038787037146843883px"/><path d="M7.023,5.085v.024H7V5.13h.025V5.2H6.985a.048.048,0,0,0,0,.021H7.08s0-.015,0-.021H7.044V5.13h.024V5.109H7.044V5.085Z" transform="translate(0)" style="fill:#ffec00;stroke:#000;stroke-width:0.0038787037146843883px"/><rect x="6.752" y="6.306" width="0.563" height="2.926" style="stroke:#000;stroke-width:0.015539832646451604px;fill:url(#c)"/><rect x="12.173" y="6.306" width="0.563" height="2.926" style="fill:#fff;stroke:#000;stroke-width:0.015539832646451604px"/><path d="M6.641,7.45c-.141.075-.2.149-.143.217a.323.323,0,0,0,.254.093V7.517C6.67,7.517,6.626,7.479,6.641,7.45Z" transform="translate(0)" style="fill:#e30520;stroke:#000;stroke-width:0.015539832646451604px"/><path d="M6.752,7.77c-.286,0-.311-.161-.389-.365-.054-.142-.011-.157.091-.24A1.978,1.978,0,0,1,7.96,7.058v.35a1.676,1.676,0,0,0-1.319.042c-.141.075-.2.149-.143.217a.323.323,0,0,0,.254.093Z" transform="translate(0)" style="fill:#e30520"/><path d="M6.451,8.65c-.021-.01.012-.044.061-.077.354-.24.654-.285.883-.453.179-.131.169-.125.169-.3,0-.095.019-.207-.088-.24a1.293,1.293,0,0,0-.16-.041v.008c.277.068.247.1.113.224a2.317,2.317,0,0,1-.772.411c-.275.084-.3.157-.278.233a.841.841,0,0,1,.026.148C6.405,8.6,6.406,8.633,6.451,8.65Z" transform="translate(0)" style="fill:#e30520"/><path d="M7.315,7.546c.278.068.248.1.114.224a1.165,1.165,0,0,1-.114.091Z" transform="translate(0)" style="fill:#e30520"/><path d="M6.451,8.65c-.021-.01.012-.044.061-.077l.02-.012c.069.059.143.241.016.323A.289.289,0,0,0,6.451,8.65Z" transform="translate(0)" style="fill:#e30520"/><path d="M12.847,7.45c.142.075.2.149.143.217a.32.32,0,0,1-.253.093V7.517C12.819,7.517,12.862,7.479,12.847,7.45Z" transform="translate(0)" style="fill:#e30520"/><path d="M12.737,7.77c.285,0,.31-.161.388-.365.055-.142.012-.157-.091-.24a1.976,1.976,0,0,0-1.506-.107v.35a1.675,1.675,0,0,1,1.319.042c.142.075.2.149.143.217a.32.32,0,0,1-.253.093Z" transform="translate(0)" style="fill:#e30520"/><path d="M13.038,8.65c.021-.01-.013-.044-.061-.077-.355-.24-.655-.285-.883-.453-.18-.131-.17-.125-.17-.3,0-.095-.019-.207.088-.24a1.342,1.342,0,0,1,.161-.041v.008c-.278.068-.248.1-.114.224a2.323,2.323,0,0,0,.773.411c.274.084.3.157.278.233a.851.851,0,0,0-.027.148C13.083,8.6,13.083,8.633,13.038,8.65Z" transform="translate(0)" style="fill:#e30520"/><path d="M12.173,7.546c-.278.068-.248.1-.114.224a1.3,1.3,0,0,0,.114.091Z" transform="translate(0)" style="fill:#e30520"/><path d="M13.038,8.65c.021-.01-.013-.044-.061-.077l-.021-.012c-.068.059-.143.241-.015.323A.286.286,0,0,1,13.038,8.65Z" transform="translate(0)" style="fill:#e30520"/><path d="M6.752,6.183a.15.15,0,0,0-.1-.153V5.821h.769V6.03a.15.15,0,0,0-.1.153Z" transform="translate(0)" style="fill:#ffec00;stroke:#000;stroke-width:0.015539832646451604px"/><path d="M6.752,9.354a.151.151,0,0,1-.1.153v.209h.769V9.507a.151.151,0,0,1-.1-.153Z" transform="translate(0)" style="fill:#ffec00;stroke:#000;stroke-width:0.015539832646451604px"/><path d="M6.753,9.371c-.058,0-.058-.091,0-.091h.569c.053,0,.053.091,0,.091" transform="translate(0)" style="fill:#ffec00;stroke:#000;stroke-width:0.015539832646451604px"/><path d="M6.753,6.167c-.058,0-.058.091,0,.091h.569c.053,0,.053-.091,0-.091" transform="translate(0)" style="fill:#ffec00;stroke:#000;stroke-width:0.015539832646451604px"/><path d="M12.737,6.183a.15.15,0,0,1,.1-.153V5.821h-.77V6.03a.149.149,0,0,1,.1.153Z" transform="translate(0)" style="stroke:#000;stroke-width:0.015539832646451604px;fill:url(#d)"/><path d="M12.737,9.354a.151.151,0,0,0,.1.153v.209h-.77V9.507a.15.15,0,0,0,.1-.153Z" transform="translate(0)" style="fill:#ffec00;stroke:#000;stroke-width:0.015539832646451604px"/><path d="M12.735,9.371c.058,0,.058-.091.005-.091h-.569c-.054,0-.054.091,0,.091" transform="translate(0)" style="fill:#ffec00;stroke:#000;stroke-width:0.015539832646451604px"/><path d="M7.418,6.03" transform="translate(0)" style="fill:none;stroke:#000;stroke-width:0.015539832646451604px"/><path d="M6.649,6.03" transform="translate(0)" style="fill:none;stroke:#000;stroke-width:0.015539832646451604px"/><path d="M7.418,9.507" transform="translate(0)" style="fill:none;stroke:#000;stroke-width:0.015539832646451604px"/><path d="M6.649,9.507" transform="translate(0)" style="fill:none;stroke:#000;stroke-width:0.015539832646451604px"/><path d="M12.07,9.507" transform="translate(0)" style="fill:none;stroke:#000;stroke-width:0.015539832646451604px"/><path d="M12.84,9.507" transform="translate(0)" style="fill:none;stroke:#000;stroke-width:0.015539832646451604px"/><path d="M9.747,4.127a2.335,2.335,0,0,1,.864.213,1.053,1.053,0,0,1,.921.283c-.015.223-.167.248-.238.4s-.237.2-.318.268a8.037,8.037,0,0,0-1.229-.142A8.037,8.037,0,0,0,8.518,5.3c-.081-.066-.248-.112-.319-.268s-.222-.182-.238-.4a1.053,1.053,0,0,1,.921-.283A2.34,2.34,0,0,1,9.747,4.127Z" transform="translate(0)" style="fill:#e30520"/><path d="M8.6,5.581a.043.043,0,0,0-.013.027c0,.1.517.183,1.155.183S10.9,5.709,10.9,5.608a.037.037,0,0,0-.012-.027c-.027-.033.01-.174.038-.24.073.018.147-.051,0-.086a6.394,6.394,0,0,0-1.178-.137,6.406,6.406,0,0,0-1.179.137c-.147.035-.073.1,0,.086C8.6,5.407,8.629,5.548,8.6,5.581Z" transform="translate(0)" style="stroke:#000;stroke-width:0.015539832646451604px;fill:url(#e)"/><path d="M9.744,3.717a.172.172,0,1,0-.172-.171A.172.172,0,0,0,9.744,3.717Z" transform="translate(0)" style="fill:#004995;stroke:#000;stroke-width:0.007769781091940875px"/><path d="M9.782,3.092v.091h.089v.076H9.782v.256h.137a.149.149,0,0,1,0,.076H9.574a.13.13,0,0,1,0-.076h.136V3.259H9.617V3.183h.089V3.092Z" transform="translate(0)" style="fill:#ffec00;stroke:#000;stroke-width:0.007769781091940875px"/><path d="M8.806,3.966a.683.683,0,0,0-.814.182.543.543,0,0,0-.031.622l.061.012.088-.149a.372.372,0,0,1,0-.521.6.6,0,0,1,.67-.086Z" transform="translate(0)" style="fill:#ffec00;stroke:#000;stroke-width:0.007769781091940875px"/><path d="M10.687,3.966a.685.685,0,0,1,.815.182.544.544,0,0,1,.03.622l-.061.012-.088-.149a.372.372,0,0,0,0-.521.6.6,0,0,0-.67-.086Z" transform="translate(0)" style="fill:#ffec00;stroke:#000;stroke-width:0.007769781091940875px"/><path d="M9.625,3.819a.615.615,0,0,0-.768.061.357.357,0,0,0,.03.531L8.824,4.5l.043.046c.025-.033.1-.137.1-.137A.331.331,0,0,1,8.943,3.9a.549.549,0,0,1,.685.013Z" transform="translate(0)" style="fill:#ffec00;stroke:#000;stroke-width:0.007769781091940875px"/><path d="M9.868,3.819a.616.616,0,0,1,.769.061.357.357,0,0,1-.031.531l.064.093-.043.046c-.026-.033-.1-.137-.1-.137a.331.331,0,0,0,.023-.516.549.549,0,0,0-.685.013Z" transform="translate(0)" style="fill:#ffec00;stroke:#000;stroke-width:0.007769781091940875px"/><path d="M9.747,4.56l.237-.21a.574.574,0,0,1-.1-.382c0-.131,0-.258-.134-.258s-.134.127-.134.258a.574.574,0,0,1-.1.382Z" transform="translate(0)" style="fill:#ffec00;stroke:#000;stroke-width:0.007769781091940875px"/><path d="M9.747,5.017a.256.256,0,0,0,.4.021.241.241,0,0,0,.395.048.246.246,0,0,0,.356.093c.058.159.3.074.425-.134s.2-.189.253-.134c.061-.232-.212-.192-.3,0l-.142-.1-.012.061h-.119l.071.1-.031.071.175.025c-.132.159-.263.119-.3-.035a.213.213,0,0,1-.218.1.16.16,0,0,1-.092-.229l.186.153.009-.1.12-.013-.1-.069.041-.1-.236.048.171-.194-.091-.018-.041-.119-.092.086L10.5,4.546l.059.251-.186-.153-.009.1-.12.014.1.069-.041.1.236-.047a.2.2,0,0,1-.2.193.28.28,0,0,1-.184-.2.21.21,0,0,1-.2.139A.187.187,0,0,1,9.8,4.784l.232.111-.017-.111.121-.045-.121-.045.017-.111L9.8,4.694l.126-.245-.1,0L9.747,4.34l-.076.114-.1,0,.127.245-.233-.111.018.111-.122.045.122.045-.018.111L9.7,4.784a.188.188,0,0,1-.15.233.208.208,0,0,1-.2-.139.283.283,0,0,1-.185.2.2.2,0,0,1-.2-.193l.237.047-.042-.1.1-.069-.12-.014-.009-.1L8.938,4.8,9,4.546l-.089.027-.092-.086-.041.119-.09.018.17.194L8.619,4.77l.041.1-.1.069.121.013.009.1L8.876,4.9a.16.16,0,0,1-.093.229.211.211,0,0,1-.217-.1c-.036.154-.167.194-.3.035l.175-.025-.031-.071.071-.1H8.364L8.351,4.81l-.142.1c-.083-.187-.356-.227-.3,0,.059-.055.132-.073.253.134s.367.293.425.134a.247.247,0,0,0,.357-.093.239.239,0,0,0,.394-.048A.257.257,0,0,0,9.747,5.017Z" transform="translate(0)" style="fill:#f29100"/><path d="M7.992,4.148a.433.433,0,0,0,.033.46l-.064.162" transform="translate(0)" style="fill:none;stroke:#000;stroke-width:0.007769781091940875px"/><path d="M11.5,4.148a.435.435,0,0,1-.033.46l.063.162" transform="translate(0)" style="fill:none;stroke:#000;stroke-width:0.007769781091940875px"/><path d="M11.557,5.786V9.129c0,.861-.907,1.135-1.813,1.135S7.932,9.99,7.932,9.129V5.786Z" transform="translate(0)" style="stroke:#000;stroke-width:0.012431676793362378px;fill:url(#f)"/><path d="M9.744,7.858V9.179a.907.907,0,0,1-1.812,0V7.858Z" transform="translate(0)" style="fill:#ffec00"/><path d="M9.744,7.858V9.179a.907.907,0,0,0,1.813,0V7.858Z" transform="translate(0)" style="fill:#e30520"/><path d="M8.32,9.894V7.858H8.16V9.75A.887.887,0,0,0,8.32,9.894Z" transform="translate(0)" style="fill:#e30520"/><path d="M8.709,10.042V7.858h-.16v2.149A.9.9,0,0,0,8.709,10.042Z" transform="translate(0)" style="fill:#e30520"/><path d="M9.356,9.894V7.858h.16V9.75A.854.854,0,0,1,9.356,9.894Z" transform="translate(0)" style="fill:#e30520"/><path d="M8.967,10.042V7.858h.16v2.149A.9.9,0,0,1,8.967,10.042Z" transform="translate(0)" style="fill:#e30520"/><rect x="7.932" y="5.786" width="1.813" height="2.071" style="fill:url(#g)"/><polyline points="10.615 8.237 10.615 8.374 10.688 8.374 10.688 8.237" style="fill:#ffec00"/><path d="M10.565,9.81a.893.893,0,0,1-.178-.034l.026-.067a.713.713,0,0,0,.155.028.094.094,0,0,1,.047-.047V9.453h.073V9.69a.1.1,0,0,1,.047.047.778.778,0,0,0,.155-.028l.026.067a.922.922,0,0,1-.178.034.093.093,0,0,1-.173,0Z" transform="translate(0)" style="fill:#ffec00"/><path d="M10.113,9.6a.092.092,0,0,1-.075-.022.093.093,0,0,1-.009-.132.4.4,0,0,1-.019-.122V9.213h.072V9.3a.411.411,0,0,0,.015.11.1.1,0,0,1,.03,0l.168-.2.055.047-.168.2a.1.1,0,0,1-.007.1,1.659,1.659,0,0,0,.258.159l-.025.066A1.536,1.536,0,0,1,10.113,9.6Z" transform="translate(0)" style="fill:#ffec00"/><path d="M10.082,8.775V8.526H10.01v.249a.093.093,0,0,0-.058.086.094.094,0,0,0,.058.086v.327h.072V8.947a.1.1,0,0,0,.049-.05h.136V8.825h-.136A.1.1,0,0,0,10.082,8.775Z" transform="translate(0)" style="fill:#ffec00"/><path d="M10.13,8.12h.137v.072h-.136l0,.005.23.27-.054.048-.223-.26v.118H10.01V8.243a.094.094,0,0,1-.035-.025.093.093,0,1,1,.141-.121A.079.079,0,0,1,10.13,8.12Z" transform="translate(0)" style="fill:#ffec00"/><path d="M10.615,8.237a.088.088,0,0,1-.047-.044h-.362V8.12h.358a.093.093,0,0,1,.087-.062.1.1,0,0,1,.088.061h.552v.072h-.556a.092.092,0,0,1-.047.044" transform="translate(0)" style="fill:#ffec00"/><polygon points="10.688 9.513 10.688 8.959 10.975 9.295 11.03 9.247 10.731 8.897 10.902 8.897 10.902 8.825 10.731 8.825 11.014 8.498 10.959 8.451 10.688 8.764 10.688 8.138 10.615 8.138 10.615 8.764 10.335 8.439 10.28 8.486 10.572 8.825 10.4 8.825 10.4 8.897 10.572 8.897 10.276 9.238 10.331 9.286 10.615 8.959 10.615 9.513 10.688 9.513" style="fill:#ffec00"/><path d="M11.19,9.6a.092.092,0,0,0,.075-.022.1.1,0,0,0,.009-.132.4.4,0,0,0,.019-.122V9.213h-.072V9.3a.375.375,0,0,1-.016.11.092.092,0,0,0-.029,0l-.168-.2-.055.047.168.2a.093.093,0,0,0,.007.1,1.481,1.481,0,0,1-.243.153l.025.066A1.394,1.394,0,0,0,11.19,9.6Z" transform="translate(0)" style="fill:#ffec00"/><path d="M11.22,8.775V8.332h.072v.443a.094.094,0,0,1,.057.086.1.1,0,0,1-.057.086v.327h-.072V8.947a.1.1,0,0,1-.049-.05H10.065V8.825h1.107A.1.1,0,0,1,11.22,8.775Z" transform="translate(0)" style="fill:#ffec00"/><path d="M11.173,8.12h-.137v.072h.135l0,.005-.231.27L11,8.516l.223-.26v.118h.072V8.243a.094.094,0,0,0,.035-.025.093.093,0,0,0-.01-.131.092.092,0,0,0-.131.01A.079.079,0,0,0,11.173,8.12Z" transform="translate(0)" style="fill:#ffec00"/><path d="M10.651,8.2a.044.044,0,0,0,.044-.043.044.044,0,0,0-.044-.044.044.044,0,0,0-.043.044A.043.043,0,0,0,10.651,8.2Z" transform="translate(0)" style="fill:#e30520"/><path d="M11.229,8.19a.043.043,0,1,0,0-.061A.043.043,0,0,0,11.229,8.19Z" transform="translate(0)" style="fill:#e30520"/><path d="M10.07,9.537a.045.045,0,0,0,.062-.005.044.044,0,0,0,0-.061.043.043,0,0,0-.061,0A.044.044,0,0,0,10.07,9.537Z" transform="translate(0)" style="fill:#e30520"/><path d="M10.074,8.19a.043.043,0,1,1,0-.061A.043.043,0,0,1,10.074,8.19Z" transform="translate(0)" style="fill:#e30520;stroke:#000;stroke-width:0.007769781091940875px"/><path d="M11.232,9.537a.043.043,0,1,1-.056-.066.043.043,0,0,1,.061,0A.044.044,0,0,1,11.232,9.537Z" transform="translate(0)" style="fill:#e30520"/><path d="M10,8.861a.043.043,0,0,0,.043.043.044.044,0,0,0,.044-.043.044.044,0,0,0-.044-.044A.044.044,0,0,0,10,8.861Z" transform="translate(0)" style="fill:#e30520"/><path d="M11.3,8.861a.044.044,0,0,1-.087,0,.044.044,0,1,1,.087,0Z" transform="translate(0)" style="fill:#e30520"/><path d="M10.651,9.82a.044.044,0,0,0,.044-.043.044.044,0,0,0-.044-.044.044.044,0,0,0-.043.044A.043.043,0,0,0,10.651,9.82Z" transform="translate(0)" style="fill:#e30520"/><path d="M10.651,8.978a.115.115,0,1,0-.114-.115A.115.115,0,0,0,10.651,8.978Z" transform="translate(0)" style="fill:#008d5b"/><rect x="9.726" y="10.035" width="0.036" height="0.187" style="fill:#008d5b;stroke:#000;stroke-width:0.007769781091940875px"/><path d="M9.79,10.163a.469.469,0,0,1,.409-.145A.4.4,0,0,1,9.79,10.163Z" transform="translate(0)" style="fill:#008d5b"/><path d="M9.7,10.146a.384.384,0,0,0-.378-.122A.333.333,0,0,0,9.7,10.146Z" transform="translate(0)" style="fill:#008d5b"/><path d="M9.744,10.057c.2,0,.214-.259.083-.3.023-.01.014-.051.023-.069a.121.121,0,0,0-.072.03.083.083,0,0,0-.034-.056.087.087,0,0,0-.034.056.121.121,0,0,0-.071-.03c.008.018,0,.059.023.069C9.531,9.8,9.545,10.057,9.744,10.057Z" transform="translate(0)" style="fill:#ffec00"/><polygon points="9.264 7.327 9.264 6.753 9.328 6.753 9.328 6.466 9.212 6.466 9.195 6.466 9.195 6.363 9.264 6.363 9.264 6.218 9.195 6.218 9.195 6.261 9.159 6.261 9.159 6.218 9.098 6.218 9.098 6.261 9.058 6.261 9.058 6.218 8.989 6.218 8.989 6.363 9.058 6.363 9.058 6.466 9.041 6.466 8.937 6.466 8.923 6.466 8.923 6.147 8.989 6.147 8.989 6.003 8.923 6.003 8.923 6.045 8.885 6.045 8.885 6.003 8.821 6.003 8.821 6.045 8.785 6.045 8.785 6.003 8.717 6.003 8.717 6.147 8.785 6.147 8.785 6.466 8.767 6.466 8.665 6.466 8.648 6.466 8.648 6.363 8.717 6.363 8.717 6.218 8.648 6.218 8.648 6.261 8.614 6.261 8.614 6.218 8.549 6.218 8.549 6.261 8.511 6.261 8.511 6.218 8.444 6.218 8.444 6.363 8.511 6.363 8.511 6.466 8.495 6.466 8.374 6.466 8.374 6.753 8.444 6.753 8.444 7.327 8.305 7.327 8.305 7.614 8.672 7.614 8.735 7.614 8.972 7.614 9.034 7.614 9.402 7.614 9.402 7.327 9.264 7.327" style="fill:url(#h)"/><path d="M10.628,6.392c-.018.047-.146.039-.187.093.077-.018.082.054.138.023-.025.046-.01.116-.043.149a.382.382,0,0,0,.159-.1c-.016.034.034.083.032.13.026-.036.057-.063.063-.1,0,.028.036.079.031.107a.144.144,0,0,0,.026-.07.087.087,0,0,0,.057.059" transform="translate(0)" style="fill:none;stroke:#000;stroke-width:0.007769781091940875px"/><path d="M10.844,7.175c.008-.044.028-.073.058-.077s.031-.025.008-.051a.322.322,0,0,0-.1-.071" transform="translate(0)" style="fill:none;stroke:#000;stroke-width:0.007769781091940875px"/><path d="M10.579,6.508c-.1.039-.121.123-.178.143" transform="translate(0)" style="fill:none;stroke:#000;stroke-width:0.007769781091940875px"/><path d="M10.549,6.8a.2.2,0,0,0,.046-.081.448.448,0,0,1,0,.057c.04-.03.051-.1.122-.124" transform="translate(0)" style="fill:none;stroke:#000;stroke-width:0.007769781091940875px"/><path d="M11.344,6.149a.275.275,0,0,0,.057-.183c-.011.054-.1.054-.108.1a.156.156,0,0,0-.046-.1c.02.09-.137.2-.082.282a.585.585,0,0,0,.025.4c.057.113.062.226.005.277A.138.138,0,0,1,11,6.9c-.085-.09-.056-.174-.1-.221a.164.164,0,0,0,.051.014.2.2,0,0,1-.023-.134.092.092,0,0,0,.095.051.154.154,0,0,1-.042-.093.115.115,0,0,0,.083,0c-.049-.026-.058-.121-.091-.148a.152.152,0,0,0,.084.026c-.017,0-.04-.045-.024-.1a.216.216,0,0,0-.109-.266.191.191,0,0,0-.216.009c-.035.029-.04.022-.092.019-.036,0-.055,0-.055.027s0,.062.018.076a.048.048,0,0,0,0,.039.029.029,0,0,1,.041-.021.2.2,0,0,1,.046.027c-.092.053-.176-.022-.214-.054a.15.15,0,0,0-.141-.015.171.171,0,0,1,.117.068.155.155,0,0,0,.113.059.066.066,0,0,1,.04.015c0,.027-.018.058-.014.08a.045.045,0,0,0,.056.033c-.072.061-.146.018-.182.028s-.059-.017-.077-.04a.347.347,0,0,0-.093-.08c-.031-.015-.048-.038-.033-.067s.023-.08,0-.094a.1.1,0,0,0-.045-.014v0a.072.072,0,0,0-.1-.019c.045.006.045.031.055.046a.069.069,0,0,0,0,.025.076.076,0,0,0-.069,0,.09.09,0,0,0-.094.023.074.074,0,0,1,.065.036.049.049,0,0,0,.016.039.061.061,0,0,0-.045.037.082.082,0,0,0-.059.1c.012-.034.05-.025.075-.029.018.015.039.026.038.051.031-.008.081-.022.077.013a.124.124,0,0,0,.105.114.056.056,0,0,1-.033.01c.041.036.157.022.177.087-.056.021-.073.06-.1.075s-.063.027-.08,0a.058.058,0,0,0-.074-.014.065.065,0,0,0-.07.048c.028-.014.041,0,.057.01a.06.06,0,0,0,.033.032.043.043,0,0,0-.052.033.066.066,0,0,0-.06.093c.007-.034.059-.023.082-.032a.068.068,0,0,0,.026.012.032.032,0,0,0,.01.031.074.074,0,0,0,.068.073c-.025-.023.007-.05.008-.075a.105.105,0,0,0,.036-.045c.019-.042.109-.061.1.016a.237.237,0,0,0,.1-.1.119.119,0,0,1,0,.054.247.247,0,0,0,.07-.061.387.387,0,0,0,.16.134.678.678,0,0,1,.1.038,1.473,1.473,0,0,1-.167,0,.074.074,0,0,0-.074.108.542.542,0,0,1,.045.132c.006.017.014.036-.009.048s-.035,0-.053-.012-.036-.053-.069-.065a.046.046,0,0,0-.026,0,.063.063,0,0,0-.1.028c.027-.01.038,0,.052.014a.057.057,0,0,0,.008.034.064.064,0,0,0-.047.039.066.066,0,0,0-.058.065c.028-.024.045,0,.068,0a.047.047,0,0,0,.055.019.035.035,0,0,0-.008.043.066.066,0,0,0,.012.088c0-.04.031-.038.044-.06a.063.063,0,0,0,.042-.024c.024-.034.047-.041.074-.03a.254.254,0,0,0,.148-.017c.047-.02.064-.048.045-.068a.125.125,0,0,1-.02-.093c.007-.04.017-.077.07-.047-.007.034-.013.067-.016.095a.088.088,0,0,0,.089.086.061.061,0,0,1,.064.039.044.044,0,0,1,.072-.012c.013.019,0,.037-.012.054a.091.091,0,0,1-.1.018.041.041,0,0,0-.059.012.066.066,0,0,0-.054.072c.023-.024.041-.01.062-.009a.022.022,0,0,0,.019,0,.063.063,0,0,1,.054.016c-.033.006-.041.026-.037.045a.066.066,0,0,0,.008.09c0-.036.028-.035.044-.049s.016,0,.019-.01.03-.008.057-.026a.044.044,0,0,0,.022.057.065.065,0,0,0,.058.07c-.02-.03,0-.045.006-.068a.03.03,0,0,0,.015-.032c.014,0,.033-.019.02-.038a.073.073,0,0,1,0-.091c.026-.044.016-.094.066-.171.021-.032.006-.057-.039-.065s-.073-.02-.073-.044a.256.256,0,0,0-.013-.054c-.009-.033,0-.072-.01-.121a.2.2,0,0,0,.216-.267A.756.756,0,0,1,11.28,6.3c.031,0,.033-.108.118-.075C11.411,6.169,11.373,6.125,11.344,6.149Z" transform="translate(0)" style="fill:url(#i)"/><path d="M9.744,8.59a.683.683,0,0,0,.62-.732.684.684,0,0,0-.62-.733.683.683,0,0,0-.619.733A.683.683,0,0,0,9.744,8.59Z" transform="translate(0)" style="fill:#e30520"/><path d="M9.744,8.412c.229,0,.415-.248.415-.554S9.973,7.3,9.744,7.3s-.414.248-.414.555S9.515,8.412,9.744,8.412Z" transform="translate(0)" style="fill:#004995"/><path d="M7.656,9.847a.271.271,0,0,1-.265-.006c-.177-.108-.339.073-.577-.03-.185-.08-.317.07-.4.019V9.75c.086.051.218-.1.4-.019.238.1.4-.078.577.03a.271.271,0,0,0,.265.006Z" transform="translate(0)" style="fill:#004995"/><path d="M7.656,10.03a.271.271,0,0,1-.265-.006c-.177-.108-.339.072-.577-.03-.185-.08-.317.07-.4.019v-.1c.086.052.218-.1.4-.019.238.1.4-.078.577.031a.271.271,0,0,0,.265,0Z" transform="translate(0)" style="fill:#004995"/><path d="M7.656,10.231a.273.273,0,0,1-.265,0c-.177-.109-.339.072-.577-.031-.185-.08-.317.071-.4.019v-.106c.086.051.218-.1.4-.019.238.1.4-.078.577.03a.271.271,0,0,0,.265.006Z" transform="translate(0)" style="fill:#004995"/><path d="M11.833,9.847a.269.269,0,0,0,.264-.006c.178-.108.339.073.577-.03.185-.08.318.07.4.019V9.75c-.086.051-.219-.1-.4-.019-.238.1-.4-.078-.577.03a.269.269,0,0,1-.264.006Z" transform="translate(0)" style="fill:#004995"/><path d="M11.833,10.03a.269.269,0,0,0,.264-.006c.178-.108.339.072.577-.03.185-.08.318.07.4.019v-.1c-.086.052-.219-.1-.4-.019-.238.1-.4-.078-.577.031a.269.269,0,0,1-.264,0Z" transform="translate(0)" style="fill:#004995"/><path d="M11.833,10.231a.271.271,0,0,0,.264,0c.178-.109.339.072.577-.031.185-.08.318.071.4.019v-.106c-.086.051-.219-.1-.4-.019-.238.1-.4-.078-.577.03a.269.269,0,0,1-.264.006Z" transform="translate(0)" style="fill:#004995"/><path d="M6.713,7.245l.036-.014a.033.033,0,0,0,.015-.046.029.029,0,0,0-.04-.018l-.035.013.024.065.013.032.029.074-.035.012-.079-.2.078-.03a.062.062,0,0,1,.078.043.067.067,0,0,1-.027.088l-.044.017Z" transform="translate(0)" style="fill:#ffec00"/><polygon points="6.937 7.062 6.973 7.237 7.06 7.219 7.068 7.258 6.943 7.285 6.898 7.07 6.937 7.062" style="fill:#ffec00"/><polygon points="7.225 7.241 7.152 7.025 7.191 7.023 7.239 7.187 7.275 7.02 7.313 7.018 7.258 7.24 7.225 7.241" style="fill:#ffec00"/><path d="M7.548,7.1c0-.02-.011-.033-.037-.036s-.03.012-.032.022,0,.022.041.033.062.027.057.068a.066.066,0,0,1-.083.06.069.069,0,0,1-.061-.077l.035,0c0,.023.014.036.037.039a.029.029,0,0,0,.037-.024c0-.015-.01-.028-.034-.035-.062-.018-.066-.045-.063-.069a.062.062,0,0,1,.074-.056.063.063,0,0,1,.063.075Z" transform="translate(0)" style="fill:#ffec00"/><polygon points="11.958 7.255 11.867 7.045 11.906 7.04 11.968 7.2 11.989 7.03 12.028 7.025 11.992 7.251 11.958 7.255" style="fill:#ffec00"/><polygon points="12.182 7.019 12.179 7.198 12.267 7.2 12.267 7.24 12.139 7.238 12.142 7.018 12.182 7.019" style="fill:#ffec00"/><polygon points="12.399 7.253 12.428 7.073 12.371 7.064 12.377 7.027 12.527 7.052 12.521 7.088 12.464 7.079 12.434 7.259 12.399 7.253" style="fill:#ffec00"/><path d="M12.645,7.181l.019-.055.048.016a.026.026,0,0,1,.016.035c-.006.017-.02.025-.032.021l-.051-.017-.012.037.037.013c.019.006.027.016.019.041l-.017.049.036.013.02-.059c.009-.026,0-.046-.013-.05.01,0,.038-.009.048-.039s0-.064-.022-.073l-.1-.035-.07.208.038.013.027-.081Z" transform="translate(0)" style="fill:#ffec00"/><polygon points="12.875 7.32 12.94 7.253 12.92 7.344 12.875 7.32 12.849 7.347 12.912 7.381 12.902 7.426 12.934 7.443 12.982 7.22 12.943 7.2 12.784 7.363 12.817 7.38 12.849 7.347 12.875 7.32" style="fill:#ffec00"/><path d="M12.456,5.345a.656.656,0,0,1,.238.058.291.291,0,0,1,.254.079c0,.061-.046.068-.066.111s-.065.056-.087.074a2.276,2.276,0,0,0-.339-.039,2.259,2.259,0,0,0-.339.039c-.022-.018-.068-.031-.088-.074s-.061-.05-.065-.111a.289.289,0,0,1,.253-.079A.656.656,0,0,1,12.456,5.345Z" transform="translate(0)" style="fill:#890f0b;stroke:#000;stroke-width:0.0038787037146843883px"/><path d="M12.948,5.522a.148.148,0,0,0-.009-.171.189.189,0,0,0-.224-.051v0a.076.076,0,0,0-.015-.026.168.168,0,0,0-.211-.017.032.032,0,0,0-.034-.03c-.022,0-.03.012-.034.03a.167.167,0,0,0-.211.017A.073.073,0,0,0,12.2,5.3v0a.191.191,0,0,0-.225.051.15.15,0,0,0-.008.171c-.012,0-.02.015-.014.039.017-.015.037-.02.07.037a.154.154,0,0,0,.111.082c.008.018.017.056.009.065l0,.008c0,.028.142.051.318.051s.319-.023.319-.051l0-.008c-.007-.009,0-.047.011-.065a.151.151,0,0,0,.11-.082c.034-.057.054-.052.07-.037C12.967,5.538,12.959,5.527,12.948,5.522Zm-.271-.241a.092.092,0,0,1-.006.143l.025.035-.009.009-.025-.008.017.07-.051-.042,0,.028-.033,0s.049.088.025.086L12.51,5.59c-.025,0,.052-.076.052-.076L12.528,5.5l0-.03-.043-.037.031-.028a.156.156,0,0,1-.028-.1V5.283A.152.152,0,0,1,12.677,5.281Zm-.443,0a.153.153,0,0,1,.185,0V5.3a.157.157,0,0,1-.029.1l.032.028-.043.037,0,.03-.033.013s.077.073.051.076l-.107.016c-.024,0,.026-.086.026-.086l-.033,0,0-.028-.051.042.016-.07-.024.008-.01-.009.026-.035A.092.092,0,0,1,12.234,5.281Zm-.2.278a.07.07,0,0,0-.048-.039l.021-.035a.1.1,0,0,1,0-.144.165.165,0,0,1,.183-.024.1.1,0,0,0,.032.106l-.016.024,0,0-.011.033-.025,0,.047.053s0,.078-.02.086A.813.813,0,0,1,12.032,5.559Zm.848,0a.8.8,0,0,1-.159.062c-.022-.008-.02-.086-.02-.086l.047-.053-.025,0-.011-.033,0,0-.016-.024a.105.105,0,0,0,.032-.106.163.163,0,0,1,.182.024.1.1,0,0,1,0,.144l.021.035A.07.07,0,0,0,12.88,5.559Z" transform="translate(0)" style="fill:url(#j)"/><path d="M9.655,7.734c0,.1-.05.183-.111.183s-.112-.082-.112-.183.05-.182.112-.182S9.655,7.634,9.655,7.734Z" transform="translate(0)" style="fill:#ffec00"/><path d="M9.853,8.134c0,.1-.05.183-.111.183s-.112-.082-.112-.183.05-.182.112-.182S9.853,8.033,9.853,8.134Z" transform="translate(0)" style="fill:#ffec00"/><path d="M10.032,7.738c0,.1-.05.183-.111.183s-.112-.082-.112-.183.05-.182.112-.182S10.032,7.637,10.032,7.738Z" transform="translate(0)" style="fill:#ffec00"/><path d="M5.428,5.832l22.089-.01L30,0H10.245A7.445,7.445,0,0,0,4.07,4.328L2.678,7.589A3.09,3.09,0,0,1,5.428,5.832Z" transform="translate(0)" style="fill:url(#k)"/></svg>