<svg xmlns="http://www.w3.org/2000/svg" xmlns:xlink="http://www.w3.org/1999/xlink" viewBox="0 0 30 17.31"><defs><linearGradient id="a" x1="1.206" y1="9.974" x2="22.474" y2="17.715" gradientTransform="matrix(1, 0, -0.063, 1, 1.082, 0)" gradientUnits="userSpaceOnUse"><stop offset="0" stop-color="#27452e"/><stop offset="0.018" stop-color="#294830"/><stop offset="0.143" stop-color="#355a3d"/><stop offset="0.294" stop-color="#3e6646"/><stop offset="0.5" stop-color="#436d4c"/><stop offset="1" stop-color="#446f4d"/></linearGradient><linearGradient id="b" x1="14.327" y1="11.552" x2="14.327" y2="5.822" gradientTransform="matrix(1, 0, -0.063, 1, 1.082, 0)" gradientUnits="userSpaceOnUse"><stop offset="0" stop-color="#fff"/><stop offset="0.231" stop-color="#fcfcfc"/><stop offset="0.408" stop-color="#f2f2f2"/><stop offset="0.567" stop-color="#e2e2e2"/><stop offset="0.716" stop-color="#cbcbcb"/><stop offset="0.857" stop-color="#adadad"/><stop offset="0.991" stop-color="#898989"/><stop offset="1" stop-color="#868686"/></linearGradient><linearGradient id="c" x1="4.863" y1="-0.075" x2="26.13" y2="7.665" gradientTransform="matrix(1, 0, -0.063, 1, 1.082, 0)" gradientUnits="userSpaceOnUse"><stop offset="0" stop-color="#ce2c3f"/><stop offset="0.344" stop-color="#cc2c3e"/><stop offset="0.527" stop-color="#c42a3b"/><stop offset="0.672" stop-color="#b62736"/><stop offset="0.798" stop-color="#a3232f"/><stop offset="0.909" stop-color="#8a1e27"/><stop offset="1" stop-color="#70191d"/></linearGradient></defs><title>flag-hu</title><path d="M5.035,11.552A2.651,2.651,0,0,1,2.383,8.81c0-.039,0-.078,0-.118a2.922,2.922,0,0,1,.181-.847L1,11.552.245,13.319a4.231,4.231,0,0,0-.238,1.134A2.592,2.592,0,0,0,2.856,17.31H18.287a7.446,7.446,0,0,0,6.175-4.327l.61-1.43Z" transform="translate(0)" style="fill:url(#a)"/><path d="M5.428,5.832a3.09,3.09,0,0,0-2.75,1.757l-.109.256a2.922,2.922,0,0,0-.181.847c0,.04,0,.079,0,.118a2.651,2.651,0,0,0,2.652,2.742H25.072l2.445-5.73Z" transform="translate(0)" style="fill:url(#b)"/><path d="M5.428,5.832l22.089-.01L30,0H10.245A7.445,7.445,0,0,0,4.07,4.328L2.678,7.589A3.09,3.09,0,0,1,5.428,5.832Z" transform="translate(0)" style="fill:url(#c)"/></svg>