<svg xmlns="http://www.w3.org/2000/svg" xmlns:xlink="http://www.w3.org/1999/xlink" viewBox="0 0 30 17.31"><defs><linearGradient id="a" x1="12.199" y1="2.831" x2="32.695" y2="2.831" gradientTransform="matrix(1, 0, -0.063, 1, -2.695, 0)" gradientUnits="userSpaceOnUse"><stop offset="0.228" stop-color="#e8501d"/><stop offset="1" stop-color="#652500"/></linearGradient><linearGradient id="b" x1="5.585" y1="14.422" x2="28.5" y2="14.422" gradientTransform="matrix(1, 0, -0.063, 1, -2.695, 0)" gradientUnits="userSpaceOnUse"><stop offset="0.142" stop-color="#004995"/><stop offset="0.319" stop-color="#00438b"/><stop offset="0.625" stop-color="#00346f"/><stop offset="1" stop-color="#001d45"/></linearGradient><linearGradient id="c" x1="16.695" y1="10.36" x2="16.695" y2="17.165" gradientTransform="matrix(1, 0, -0.063, 1, -2.695, 0)" gradientUnits="userSpaceOnUse"><stop offset="0.142" stop-color="#fff"/><stop offset="0.271" stop-color="#f5f5f5"/><stop offset="0.494" stop-color="#d9d9d9"/><stop offset="0.781" stop-color="#adadad"/><stop offset="1" stop-color="#868686"/></linearGradient><linearGradient id="d" x1="16.91" y1="0.616" x2="16.91" y2="16.538" gradientTransform="matrix(1, 0, -0.063, 1, -2.695, 0)" gradientUnits="userSpaceOnUse"><stop offset="0.324" stop-color="#13a438"/><stop offset="0.428" stop-color="#119a34"/><stop offset="0.605" stop-color="#0d7e27"/><stop offset="0.834" stop-color="#065214"/><stop offset="1" stop-color="#002d04"/></linearGradient><linearGradient id="e" x1="8.852" y1="3.698" x2="8.852" y2="13.403" gradientTransform="matrix(1, 0, -0.063, 1, -2.695, 0)" gradientUnits="userSpaceOnUse"><stop offset="0.306" stop-color="#fbc14f"/><stop offset="0.395" stop-color="#f3bb4d"/><stop offset="0.531" stop-color="#deac46"/><stop offset="0.696" stop-color="#bc923a"/><stop offset="0.882" stop-color="#8d6e2b"/><stop offset="1" stop-color="#6b5520"/></linearGradient><linearGradient id="f" x1="5.5" y1="8.555" x2="10.809" y2="10.487" gradientTransform="matrix(1, 0, -0.063, 1, -2.695, 0)" gradientUnits="userSpaceOnUse"><stop offset="0" stop-color="#1a1a1a"/><stop offset="0.195" stop-color="#111"/><stop offset="0.612" stop-color="#040404"/><stop offset="1"/></linearGradient><linearGradient id="g" x1="-409.471" y1="-415.781" x2="-409.484" y2="-415.817" gradientTransform="matrix(25.74, -409.123, -409.123, 0, -159554.819, -167518.668)" gradientUnits="userSpaceOnUse"><stop offset="0" stop-opacity="0.3"/><stop offset="1" stop-opacity="0"/></linearGradient></defs><title>flag-zaf</title><path d="M27.584,5.663,30,0H10.245A4.737,4.737,0,0,0,9.5.061l7.233,5.6Z" style="fill:url(#a)"/><path d="M1.81,17.165a3.637,3.637,0,0,0,1.046.145H18.287a7.446,7.446,0,0,0,6.175-4.327l.618-1.448H14.109Z" style="fill:url(#b)"/><path d="M16.733,5.663,9.5.061A6.352,6.352,0,0,0,7.764.616L15.8,6.838H27.083l.5-1.175Z" style="fill:#ececec"/><path d="M.727,16.538a2.578,2.578,0,0,0,1.083.627l12.3-5.63H25.08l.5-1.175H14.222Z" style="fill:url(#c)"/><path d="M15.8,6.838,7.764.616A7.944,7.944,0,0,0,4.385,3.7l6.327,4.9L.217,13.4a4.212,4.212,0,0,0-.21,1.05,2.62,2.62,0,0,0,.72,2.085l13.5-6.178H25.581L26.332,8.6l.751-1.761Z" style="fill:url(#d)"/><path d="M4.385,3.7a6.168,6.168,0,0,0-.315.63L3.742,5.1,8.26,8.6.8,12.013.245,13.319c-.01.028-.018.056-.028.084l10.5-4.8Z" style="fill:url(#e)"/><polygon points="3.742 5.099 2.253 8.599 8.26 8.599 3.742 5.099" style="fill:#e8501d"/><polygon points="3.742 5.099 2.253 8.599 0.801 12.013 8.26 8.599 3.742 5.099" style="fill:url(#f)"/><path d="M29.854,0H17.724a4.409,4.409,0,0,0-.457.027l-.085.009q-.043,0-.087.012l-.067.01c-.072.01-.144.022-.217.036s-.144.029-.217.046l-.028.006-.1.023q-.138.036-.276.078c-.083.025-.165.052-.248.082l-.027.009L15.9.344l-.072.029-.007,0c-.155.058-.309.123-.463.193l-.14.066c-.168.082-.336.169-.5.265l-.036.019c-.18.106-.357.221-.53.342l-.038.028-.061.044q-.216.156-.422.325l-.083.068-.01.008c-.162.138-.32.28-.471.43l-.005.005q-.208.207-.4.426l-.04.047c-.059.068-.117.138-.173.208a6.854,6.854,0,0,0-.665,1c-.044.083-.087.167-.127.251h0c-.006.011-.129.29-.33.746L7.855,12.983a1.991,1.991,0,0,0-.085.225,3.878,3.878,0,0,0-.251,1.917l0,.033.015.077,0,.016c.012.062.025.122.041.182.009.036.019.073.03.108l0,.015c.021.066.046.131.072.194l.007.02c.008.02.016.04.025.06l0,.012,0,0a2.345,2.345,0,0,0,.123.233v0c.019.031.039.06.059.09s.058.085.09.126l.02.026.034.043.035.043.008.008c.049.056.1.109.154.16l.02.021.021.02.007.006a2.491,2.491,0,0,0,.22.172c.026.018.055.036.083.053l.018.012q.07.043.144.084l.024.013c.03.016.059.032.09.047l.032.014c.077.036.156.07.238.1l.017.007.007,0a3.1,3.1,0,0,0,.319.089c.033.008.067.014.1.021.079.015.159.028.242.038l.017,0,.082.009.025,0c.122.012.246.019.376.019h7.952a7.446,7.446,0,0,0,6.175-4.327L30,0Z" style="fill:url(#g)"/></svg>