<svg xmlns="http://www.w3.org/2000/svg" xmlns:xlink="http://www.w3.org/1999/xlink" viewBox="0 0 30 17.31"><defs><linearGradient id="a" x1="10.426" y1="6.598" x2="18.506" y2="9.539" gradientTransform="matrix(1, 0, -0.063, 1, 0.569, 0)" gradientUnits="userSpaceOnUse"><stop offset="0.049" stop-color="#4d4d4d"/><stop offset="0.142" stop-color="#707070"/><stop offset="0.258" stop-color="#949494"/><stop offset="0.381" stop-color="#b2b2b2"/><stop offset="0.509" stop-color="#c9c9c9"/><stop offset="0.647" stop-color="#d9d9d9"/><stop offset="0.8" stop-color="#e3e3e3"/><stop offset="1" stop-color="#e6e6e6"/></linearGradient><linearGradient id="b" x1="20.39" x2="20.39" y2="17.31" gradientTransform="matrix(1, 0, -0.063, 1, 0.569, 0)" gradientUnits="userSpaceOnUse"><stop offset="0" stop-color="#e20613"/><stop offset="0.205" stop-color="#df0613"/><stop offset="0.369" stop-color="#d50611"/><stop offset="0.519" stop-color="#c4060f"/><stop offset="0.661" stop-color="#ac070c"/><stop offset="0.798" stop-color="#8d0708"/><stop offset="0.928" stop-color="#680803"/><stop offset="1" stop-color="#500800"/></linearGradient><linearGradient id="c" x1="8.751" x2="8.751" y2="17.31" gradientTransform="matrix(1, 0, -0.063, 1, 0.569, 0)" gradientUnits="userSpaceOnUse"><stop offset="0" stop-color="#5b9dd5"/><stop offset="0.152" stop-color="#5899d1"/><stop offset="0.315" stop-color="#518ec4"/><stop offset="0.483" stop-color="#447cae"/><stop offset="0.655" stop-color="#326390"/><stop offset="0.828" stop-color="#1b436a"/><stop offset="1" stop-color="#001c3c"/></linearGradient></defs><title>flag-fr</title><path d="M11.352,17.277c.1-.011.206-.026.31-.044.037-.007.074-.012.111-.02.132-.025.263-.056.395-.092.041-.011.082-.024.123-.036.094-.028.187-.057.28-.089.056-.019.112-.039.167-.06.082-.031.163-.064.244-.1s.182-.078.272-.121.154-.072.23-.111.151-.08.227-.122c.046-.025.091-.051.137-.078.082-.048.165-.1.246-.148l.024-.015q.294-.187.574-.4l.017-.013c.1-.073.189-.149.281-.226L15,15.6a8.223,8.223,0,0,0,.8-.766h0a6.754,6.754,0,0,0,1.209-1.846L22.543,0H17.724a4.758,4.758,0,0,0-.542.036c-.051.006-.1.014-.154.022-.144.021-.289.048-.434.082-.043.01-.086.018-.129.029-.184.048-.368.1-.551.169-.032.011-.064.025-.1.037-.155.058-.309.123-.462.193l-.141.066c-.168.082-.336.169-.5.265l-.036.019c-.18.106-.357.221-.53.342l-.1.072q-.216.156-.422.325l-.093.076c-.164.139-.324.284-.476.435h0a7.072,7.072,0,0,0-1.4,1.937c-.036.074-.074.147-.107.223L7.855,12.983c-.033.075-.057.149-.085.224a3.883,3.883,0,0,0-.251,1.918c.006.043.015.084.023.126.012.061.025.122.041.181.011.042.022.083.035.124.021.066.045.131.071.194.012.031.023.062.037.091a2.342,2.342,0,0,0,.125.238c.019.031.04.061.06.092.035.052.071.1.11.152.022.029.045.058.069.086q.076.087.162.168c.014.013.027.028.041.04a2.2,2.2,0,0,0,.227.178c.027.019.055.037.083.054.06.039.122.075.186.109.03.016.059.032.09.047a2.834,2.834,0,0,0,.27.113l.024.009a2.872,2.872,0,0,0,.319.09c.033.008.067.014.1.02.084.017.17.031.259.042.035,0,.07.009.107.012.122.011.246.019.376.019h.5c.133,0,.267-.008.4-.02C11.273,17.287,11.312,17.282,11.352,17.277Z" transform="translate(0)" style="fill:url(#a)"/><path d="M29.854,0H22.543L17.005,12.983A6.754,6.754,0,0,1,15.8,14.829,8.109,8.109,0,0,1,15,15.6l-.011.009c-.092.077-.186.153-.281.226l-.017.013q-.28.213-.574.4l-.024.015c-.081.052-.163.1-.246.148-.046.027-.091.053-.137.078-.076.042-.151.083-.227.122s-.153.075-.23.111-.181.083-.272.121-.162.067-.244.1c-.055.021-.111.041-.167.06-.093.032-.186.061-.28.089-.041.012-.082.025-.123.036-.132.036-.263.067-.395.092-.037.008-.074.013-.111.02-.1.018-.207.033-.31.044-.04,0-.079.01-.119.013-.135.012-.269.02-.4.02h7.456a7.446,7.446,0,0,0,6.175-4.327L30,0Z" transform="translate(0)" style="fill:url(#b)"/><path d="M17.663,0H10.245A7.443,7.443,0,0,0,4.071,4.328L.376,12.983c-1.016,2.38.1,4.327,2.48,4.327h7.479c-.13,0-.254-.008-.376-.019-.037,0-.072-.008-.107-.012-.089-.011-.175-.025-.259-.042-.034-.006-.068-.012-.1-.02a2.872,2.872,0,0,1-.319-.09l-.024-.009a2.834,2.834,0,0,1-.27-.113c-.031-.015-.06-.031-.09-.047-.064-.034-.126-.07-.186-.109-.028-.017-.056-.035-.083-.054a2.2,2.2,0,0,1-.227-.178c-.014-.012-.027-.027-.041-.04q-.086-.081-.162-.168c-.024-.028-.046-.057-.069-.086-.039-.049-.075-.1-.11-.152-.02-.031-.041-.061-.06-.092a2.241,2.241,0,0,1-.125-.238c-.014-.029-.025-.06-.037-.091-.026-.063-.05-.128-.071-.194-.013-.041-.024-.082-.035-.124-.016-.059-.029-.119-.041-.181-.008-.042-.017-.083-.023-.126a3.883,3.883,0,0,1,.251-1.918c.028-.075.052-.149.085-.224l3.694-8.655c.033-.076.071-.149.107-.223a7.072,7.072,0,0,1,1.4-1.937c.152-.151.312-.3.476-.435l.093-.076q.206-.169.422-.325l.1-.072c.173-.121.35-.236.53-.342L14.715.9c.164-.1.332-.183.5-.265l.141-.066c.153-.07.307-.135.462-.193.032-.012.064-.026.1-.037q.275-.1.551-.169c.043-.011.086-.019.129-.029.145-.034.29-.061.434-.082.051-.008.1-.016.154-.022A4.742,4.742,0,0,1,17.724,0Z" transform="translate(0)" style="fill:url(#c)"/></svg>