<svg xmlns="http://www.w3.org/2000/svg" xmlns:xlink="http://www.w3.org/1999/xlink" viewBox="0 0 30 17.31"><defs><linearGradient id="a" x1="4.982" y1="9.974" x2="26.251" y2="17.715" gradientTransform="matrix(1, 0, -0.063, 1, -2.695, 0)" gradientUnits="userSpaceOnUse"><stop offset="0" stop-color="#002449"/><stop offset="0.156" stop-color="#003463"/><stop offset="0.361" stop-color="#00447e"/><stop offset="0.57" stop-color="#005092"/><stop offset="0.781" stop-color="#00579d"/><stop offset="1" stop-color="#0059a1"/></linearGradient><linearGradient id="b" x1="18.104" y1="11.552" x2="18.104" y2="5.822" gradientTransform="matrix(1, 0, -0.063, 1, -2.695, 0)" gradientUnits="userSpaceOnUse"><stop offset="0" stop-color="#ececec"/><stop offset="0.181" stop-color="#e8e8e8"/><stop offset="0.344" stop-color="#dedede"/><stop offset="0.5" stop-color="#cbcbcb"/><stop offset="0.651" stop-color="#b2b2b1"/><stop offset="0.799" stop-color="#919190"/><stop offset="0.943" stop-color="#696968"/><stop offset="1" stop-color="#575756"/></linearGradient><linearGradient id="c" x1="8.64" y1="-0.075" x2="29.907" y2="7.665" gradientTransform="matrix(1, 0, -0.063, 1, -2.695, 0)" gradientUnits="userSpaceOnUse"><stop offset="0" stop-color="#500800"/><stop offset="0.08" stop-color="#6c0804"/><stop offset="0.205" stop-color="#900708"/><stop offset="0.336" stop-color="#ae070c"/><stop offset="0.474" stop-color="#c5060f"/><stop offset="0.622" stop-color="#d50611"/><stop offset="0.786" stop-color="#df0613"/><stop offset="1" stop-color="#e20613"/></linearGradient></defs><title>flag-nl</title><path d="M5.068,11.553H5.035A2.651,2.651,0,0,1,2.383,8.81c0-.039,0-.078,0-.118a2.922,2.922,0,0,1,.181-.847L1,11.552.245,13.319a4.231,4.231,0,0,0-.238,1.134A2.592,2.592,0,0,0,2.856,17.31H18.287a7.446,7.446,0,0,0,6.175-4.327l.61-1.43Z" transform="translate(0)" style="fill:url(#a)"/><path d="M5.428,5.832a3.09,3.09,0,0,0-2.75,1.757l-.109.256a2.922,2.922,0,0,0-.181.847c0,.04,0,.079,0,.118a2.651,2.651,0,0,0,2.652,2.742H25.072l2.445-5.73Z" transform="translate(0)" style="fill:url(#b)"/><path d="M5.428,5.832l22.089-.01L30,0H10.245A7.445,7.445,0,0,0,4.07,4.328L2.678,7.589A3.09,3.09,0,0,1,5.428,5.832Z" transform="translate(0)" style="fill:url(#c)"/></svg>