<svg xmlns="http://www.w3.org/2000/svg" xmlns:xlink="http://www.w3.org/1999/xlink" viewBox="0 0 30 17.31"><defs><linearGradient id="a" x1="-409.5" y1="-415.796" x2="-409.458" y2="-415.796" gradientTransform="matrix(25.74, -409.123, -409.123, 0, -159551.042, -167518.668)" gradientUnits="userSpaceOnUse"><stop offset="0" stop-color="#ececec"/><stop offset="0.312" stop-color="#eaeaea"/><stop offset="0.493" stop-color="#e1e1e1"/><stop offset="0.642" stop-color="#d3d3d3"/><stop offset="0.773" stop-color="#bfbfbf"/><stop offset="0.89" stop-color="#a6a6a6"/><stop offset="1" stop-color="#868686"/></linearGradient><linearGradient id="b" x1="12.31" y1="-5.195" x2="29.417" y2="9.159" gradientTransform="matrix(1, 0, -0.063, 1, 1.082, 0)" gradientUnits="userSpaceOnUse"><stop offset="0.125" stop-color="#200"/><stop offset="0.18" stop-color="#530205"/><stop offset="0.245" stop-color="#86030a"/><stop offset="0.306" stop-color="#ae040e"/><stop offset="0.362" stop-color="#ca0511"/><stop offset="0.41" stop-color="#dc0612"/><stop offset="0.445" stop-color="#e20613"/></linearGradient><linearGradient id="c" x1="-409.5" y1="-415.788" x2="-409.458" y2="-415.788" xlink:href="#a"/><linearGradient id="d" x1="10.411" y1="1.605" x2="28.296" y2="16.613" xlink:href="#b"/><linearGradient id="e" x1="-409.5" y1="-415.785" x2="-409.458" y2="-415.785" xlink:href="#a"/><linearGradient id="f" x1="8.866" y1="7.059" x2="28.176" y2="23.262" xlink:href="#b"/><linearGradient id="g" x1="-409.5" y1="-415.784" x2="-409.458" y2="-415.784" xlink:href="#a"/><linearGradient id="h" x1="8.671" y1="0.759" x2="38.677" y2="11.681" gradientTransform="matrix(1, 0, -0.063, 1, 1.082, 0)" gradientUnits="userSpaceOnUse"><stop offset="0.13" stop-color="#868686"/><stop offset="0.15" stop-color="#969696"/><stop offset="0.19" stop-color="#b1b1b1"/><stop offset="0.237" stop-color="#c7c7c7"/><stop offset="0.291" stop-color="#d8d8d8"/><stop offset="0.359" stop-color="#e3e3e3"/><stop offset="0.453" stop-color="#eaeaea"/><stop offset="0.715" stop-color="#ececec"/></linearGradient><linearGradient id="i" x1="5.922" y1="6.339" x2="37.01" y2="17.654" xlink:href="#h"/><linearGradient id="j" x1="6.054" y1="12.079" x2="33.406" y2="22.034" xlink:href="#h"/><linearGradient id="k" x1="7.716" y1="17.31" x2="7.716" gradientTransform="matrix(1, 0, -0.063, 1, 1.082, 0)" gradientUnits="userSpaceOnUse"><stop offset="0" stop-color="#001e46"/><stop offset="0.162" stop-color="#002d61"/><stop offset="0.362" stop-color="#003c7c"/><stop offset="0.567" stop-color="#00478f"/><stop offset="0.777" stop-color="#004d9a"/><stop offset="1" stop-color="#004f9e"/></linearGradient><linearGradient id="l" x1="3.968" y1="63.915" x2="3.968" y2="-84.879" gradientTransform="matrix(1, 0, -0.063, 1, 1.082, 0)" gradientUnits="userSpaceOnUse"><stop offset="0.31" stop-color="#868686"/><stop offset="0.315" stop-color="#9f9f9f"/><stop offset="0.321" stop-color="#bababa"/><stop offset="0.328" stop-color="#d0d0d0"/><stop offset="0.336" stop-color="#e1e1e1"/><stop offset="0.346" stop-color="#ececec"/><stop offset="0.36" stop-color="#f3f3f3"/><stop offset="0.4" stop-color="#f5f5f5"/></linearGradient><linearGradient id="m" x1="-1.98" y1="10.487" x2="17.33" y2="26.69" xlink:href="#b"/><linearGradient id="n" x1="5.088" y1="63.915" x2="5.088" y2="-84.879" gradientTransform="matrix(1, 0, -0.063, 1, 1.082, 0)" gradientUnits="userSpaceOnUse"><stop offset="0.31" stop-color="#200"/><stop offset="0.313" stop-color="#380102"/><stop offset="0.32" stop-color="#6c0207"/><stop offset="0.326" stop-color="#96040b"/><stop offset="0.333" stop-color="#b7050f"/><stop offset="0.339" stop-color="#cf0511"/><stop offset="0.345" stop-color="#dd0613"/><stop offset="0.35" stop-color="#e20613"/></linearGradient><linearGradient id="o" x1="12.5" y1="17.31" x2="12.5" y2="0" xlink:href="#k"/><linearGradient id="p" x1="3.472" y1="17.31" x2="3.472" gradientTransform="matrix(1, 0, -0.063, 1, 1.082, 0)" gradientUnits="userSpaceOnUse"><stop offset="0.32" stop-color="#001e46"/><stop offset="0.43" stop-color="#002d61"/><stop offset="0.566" stop-color="#003c7c"/><stop offset="0.705" stop-color="#00478f"/><stop offset="0.848" stop-color="#004d9a"/><stop offset="1" stop-color="#004f9e"/></linearGradient><linearGradient id="q" x1="14.224" y1="17.31" x2="14.224" y2="0" xlink:href="#k"/><linearGradient id="r" x1="6.154" y1="17.31" x2="6.154" y2="0" xlink:href="#p"/><linearGradient id="s" x1="2.643" y1="6.026" x2="4.469" y2="6.69" gradientTransform="matrix(1, 0, -0.063, 1, 1.082, 0)" gradientUnits="userSpaceOnUse"><stop offset="0" stop-color="#d9d9d9"/><stop offset="0.112" stop-color="#e3e3e3"/><stop offset="0.293" stop-color="#eaeaea"/><stop offset="0.715" stop-color="#ececec"/></linearGradient></defs><title>flag-us</title><path d="M30,0H17.724a4.758,4.758,0,0,0-.542.036c-.052.006-.1.014-.154.022-.144.021-.289.048-.434.082-.043.01-.086.018-.129.029-.184.048-.368.1-.551.169-.032.011-.064.025-.1.037-.155.058-.309.123-.462.193l-.141.066c-.168.082-.336.169-.5.265l-.036.019c-.18.106-.357.221-.53.342l-.1.072q-.216.156-.422.325l-.093.076c-.164.139-.324.284-.476.435a7.806,7.806,0,0,0-.637.715H28.77Z" transform="translate(0)" style="fill:url(#a)"/><path d="M30,0H17.724a4.758,4.758,0,0,0-.542.036c-.052.006-.1.014-.154.022-.144.021-.289.048-.434.082-.043.01-.086.018-.129.029-.184.048-.368.1-.551.169-.032.011-.064.025-.1.037-.155.058-.309.123-.462.193l-.141.066c-.168.082-.336.169-.5.265l-.036.019c-.18.106-.357.221-.53.342l-.1.072q-.216.156-.422.325l-.093.076c-.164.139-.324.284-.476.435a7.806,7.806,0,0,0-.637.715H28.77Z" transform="translate(0)" style="fill:url(#b)"/><path d="M7.946,8.678H26.3l1.236-2.9H9.819A9.619,9.619,0,0,0,7.946,8.678Z" transform="translate(0)" style="fill:url(#c)"/><path d="M7.946,8.678H26.3l1.236-2.9H9.819A9.619,9.619,0,0,0,7.946,8.678Z" transform="translate(0)" style="fill:url(#d)"/><path d="M7.631,13.573a1.111,1.111,0,0,0-.219.9H23.56a6.519,6.519,0,0,0,.9-1.49l.6-1.408H7.246C7.146,12.938,7.421,13.808,7.631,13.573Z" transform="translate(0)" style="fill:url(#e)"/><path d="M7.631,13.573a1.111,1.111,0,0,0-.219.9H23.56a6.519,6.519,0,0,0,.9-1.49l.6-1.408H7.246C7.146,12.938,7.421,13.808,7.631,13.573Z" transform="translate(0)" style="fill:url(#f)"/><path d="M7.542,15.251c.012.062.025.122.041.181.011.042.022.083.035.124.021.066.045.131.071.194.012.031.023.062.036.092a2.554,2.554,0,0,0,.126.237c.019.031.04.062.06.092.035.052.071.1.11.152.022.029.045.058.069.086q.076.087.162.168c.014.013.026.028.041.041a2.509,2.509,0,0,0,.227.178c.026.018.055.036.083.053.06.039.122.075.186.109.03.016.059.032.09.047a2.834,2.834,0,0,0,.27.113l.024.01a3.1,3.1,0,0,0,.319.089c.033.008.067.014.1.021.084.016.17.03.259.041.035,0,.07.009.107.012.122.011.246.019.376.019h7.952a7.3,7.3,0,0,0,5.273-2.837H7.412c.024.229.078.456.107.652C7.525,15.168,7.534,15.209,7.542,15.251Z" transform="translate(0)" style="fill:url(#g)"/><path d="M12.422,2.883a6.668,6.668,0,0,0-.766,1.222c-.03.062-.147.223-.09.185A10.5,10.5,0,0,0,9.819,5.78H27.534l1.236-2.9Z" transform="translate(0)" style="fill:url(#h)"/><path d="M7.246,11.575H25.062l1.236-2.9H7.946A9.429,9.429,0,0,0,7.246,11.575Z" transform="translate(0)" style="fill:url(#i)"/><path d="M7.519,15.125c.006.043.015.084.023.126.012.062.025.122.041.181.011.042.022.083.035.124.021.066.045.131.071.194.012.031.023.062.036.092a2.554,2.554,0,0,0,.126.237c.019.031.04.062.06.092.035.052.071.1.11.152.022.029.045.058.069.086q.076.087.162.168c.014.013.026.028.041.041a2.509,2.509,0,0,0,.227.178c.026.018.055.036.083.053.06.039.122.075.186.109.03.016.059.032.09.047a2.834,2.834,0,0,0,.27.113l.024.01a3.1,3.1,0,0,0,.319.089c.033.008.067.014.1.021.084.016.17.03.259.041.035,0,.07.009.107.012.122.011.246.019.376.019h7.952a7.3,7.3,0,0,0,5.273-2.837H7.412C7.436,14.7,7.49,14.929,7.519,15.125Z" transform="translate(0)" style="fill:url(#j)"/><polygon points="7.578 10.743 7.059 11.575 7.683 11.575 7.578 10.743" style="fill:none"/><polygon points="7.8 12.508 8.038 12.553 8.456 11.575 7.683 11.575 7.8 12.508" style="fill:url(#k)"/><path d="M7.77,13.207c.028-.074.052-.149.085-.224l.183-.43.418-.978H.977l-.6,1.408a4.455,4.455,0,0,0-.37,1.49H7.492A4.292,4.292,0,0,1,7.77,13.207Z" transform="translate(0)" style="fill:url(#l)"/><path d="M2.856,17.31h7.479c-.13,0-.254-.008-.376-.019-.037,0-.072-.008-.107-.012-.089-.011-.175-.025-.259-.041-.034-.007-.068-.013-.1-.021a3.1,3.1,0,0,1-.319-.089l-.024-.01a2.834,2.834,0,0,1-.27-.113c-.031-.015-.06-.031-.09-.047-.064-.034-.126-.07-.186-.109L8.52,16.8a2.509,2.509,0,0,1-.227-.178c-.015-.013-.027-.028-.041-.041q-.086-.081-.162-.168c-.024-.028-.046-.057-.069-.086-.039-.049-.075-.1-.11-.152-.02-.03-.041-.061-.06-.092a2.554,2.554,0,0,1-.126-.237c-.013-.03-.024-.061-.036-.092-.026-.063-.05-.128-.071-.194-.013-.041-.024-.082-.035-.124-.016-.059-.029-.119-.041-.181-.008-.042-.017-.083-.023-.126,0-.024-.007-.049-.01-.074a3.343,3.343,0,0,1-.017-.578H.006A2.592,2.592,0,0,0,2.856,17.31Z" transform="translate(0)" style="fill:url(#m)"/><path d="M2.856,17.31h7.479c-.13,0-.254-.008-.376-.019-.037,0-.072-.008-.107-.012-.089-.011-.175-.025-.259-.041-.034-.007-.068-.013-.1-.021a3.1,3.1,0,0,1-.319-.089l-.024-.01a2.834,2.834,0,0,1-.27-.113c-.031-.015-.06-.031-.09-.047-.064-.034-.126-.07-.186-.109L8.52,16.8a2.509,2.509,0,0,1-.227-.178c-.015-.013-.027-.028-.041-.041q-.086-.081-.162-.168c-.024-.028-.046-.057-.069-.086-.039-.049-.075-.1-.11-.152-.02-.03-.041-.061-.06-.092a2.554,2.554,0,0,1-.126-.237c-.013-.03-.024-.061-.036-.092-.026-.063-.05-.128-.071-.194-.013-.041-.024-.082-.035-.124-.016-.059-.029-.119-.041-.181-.008-.042-.017-.083-.023-.126,0-.024-.007-.049-.01-.074a3.343,3.343,0,0,1-.017-.578H.006A2.592,2.592,0,0,0,2.856,17.31Z" transform="translate(0)" style="fill:url(#n)"/><path d="M13.123,2.105c.133-.128.271-.252.412-.372l.093-.076c.071-.058.142-.115.215-.171l-.733.374Z" transform="translate(0)" style="fill:url(#o)"/><polygon points="3.048 11.575 4.604 11.575 4.124 11.082 3.048 11.575" style="fill:url(#p)"/><path d="M17.663,0H12.888l.118.944,1.254.24c.138-.093.277-.182.419-.266L14.715.9c.164-.1.332-.183.5-.265l.141-.066c.153-.07.307-.135.462-.193.032-.012.064-.026.1-.037q.275-.1.551-.169c.043-.011.086-.019.129-.029.145-.034.29-.061.434-.082.051-.008.1-.016.154-.022A4.742,4.742,0,0,1,17.724,0Z" transform="translate(0)" style="fill:url(#q)"/><path d="M10.913,2.891l.7-1.281-.9-1.027L12.1.8l.5-.8H10.245A7.446,7.446,0,0,0,4.07,4.328l-.126.3.13,1.037,1.382.265-1.278.651.076,1.41L3.3,7.006l-.461.211L1.743,9.78l-.766,1.8h1.89l.637-1.17L2.6,9.378,3.992,9.6l.741-1.188L4.9,9.738,6.282,10,5,10.654l.05.921h3.4l.936-2.193L8.913,8.89l-1.317.6.7-1.282-.9-1.026L8.782,7.4l.741-1.188.167,1.33.449.086,1.41-3.3c.032-.076.071-.149.107-.223A6.742,6.742,0,0,1,12.6,2.666l-.369-.378ZM8.321,4.052,8.4,5.462,7.441,4.48l-1.318.6L6.82,3.8l-.9-1.027,1.392.218L8.05,1.805l.167,1.331L9.6,3.4Z" transform="translate(0)" style="fill:url(#r)"/><polygon points="8.05 1.805 7.309 2.993 5.917 2.775 6.82 3.802 6.123 5.083 7.441 4.48 8.396 5.462 8.321 4.052 9.598 3.4 8.217 3.136 8.05 1.805" style="fill:#fff"/><path d="M12.888,0H12.6l-.5.8L10.707.583l.9,1.027-.7,1.281,1.317-.6.369.378c.145-.171.3-.338.46-.5l.064-.063L13.11,1.86l.733-.374c.068-.052.137-.1.207-.154l.1-.072.111-.076L13.006.944Z" transform="translate(0)" style="fill:#fff"/><polygon points="6.282 10.003 4.9 9.738 4.733 8.408 3.992 9.596 2.601 9.378 3.504 10.405 2.867 11.575 3.048 11.575 4.124 11.082 4.604 11.575 5.054 11.575 5.004 10.654 6.282 10.003" style="fill:#fff"/><polygon points="9.523 6.216 8.782 7.404 7.39 7.186 8.293 8.212 7.596 9.494 8.913 8.89 9.392 9.382 10.139 7.632 9.69 7.546 9.523 6.216" style="fill:#fff"/><polygon points="4.254 7.988 4.178 6.578 5.456 5.927 4.074 5.662 3.944 4.625 3.319 6.088 2.837 7.217 3.298 7.006 4.254 7.988" style="fill:url(#s)"/></svg>