<svg xmlns="http://www.w3.org/2000/svg" xmlns:xlink="http://www.w3.org/1999/xlink" viewBox="0 0 30 17.31"><defs><linearGradient id="a" x1="-409.5" y1="-415.79" x2="-409.458" y2="-415.79" gradientTransform="matrix(25.74, -409.123, -409.123, 0, -159551.042, -167518.668)" gradientUnits="userSpaceOnUse"><stop offset="0" stop-color="#ececec"/><stop offset="0.312" stop-color="#eaeaea"/><stop offset="0.493" stop-color="#e1e1e1"/><stop offset="0.642" stop-color="#d3d3d3"/><stop offset="0.773" stop-color="#bfbfbf"/><stop offset="0.89" stop-color="#a6a6a6"/><stop offset="1" stop-color="#868686"/></linearGradient><linearGradient id="b" x1="6.194" y1="34.577" x2="11.476" y2="43.725" gradientTransform="translate(-16.206 -18.358) rotate(-34.158)" gradientUnits="userSpaceOnUse"><stop offset="0.095" stop-color="#770f00"/><stop offset="0.196" stop-color="#950d05"/><stop offset="0.319" stop-color="#b10a0a"/><stop offset="0.451" stop-color="#c7080e"/><stop offset="0.596" stop-color="#d60711"/><stop offset="0.762" stop-color="#df0612"/><stop offset="1" stop-color="#e20613"/></linearGradient><linearGradient id="c" x1="8.238" y1="17.31" x2="8.238" gradientTransform="matrix(1, 0, -0.063, 1, 1.082, 0)" gradientUnits="userSpaceOnUse"><stop offset="0" stop-color="#868686"/><stop offset="0.11" stop-color="#a6a6a6"/><stop offset="0.227" stop-color="#bfbfbf"/><stop offset="0.358" stop-color="#d3d3d3"/><stop offset="0.507" stop-color="#e1e1e1"/><stop offset="0.688" stop-color="#eaeaea"/><stop offset="1" stop-color="#ececec"/></linearGradient></defs><title>flag-jpn</title><path d="M30,0H17.724a4.758,4.758,0,0,0-.542.036c-.051.006-.1.014-.154.022-.144.021-.289.048-.434.082-.043.01-.086.018-.129.029-.184.048-.368.1-.551.169-.032.011-.064.025-.1.037-.155.058-.309.123-.462.193l-.141.066c-.168.082-.336.169-.5.265l-.036.019c-.18.106-.357.221-.53.342l-.1.072q-.216.156-.422.325l-.093.076c-.164.139-.324.284-.476.435a7.072,7.072,0,0,0-1.4,1.937c-.03.062-.146.223-.09.185-5.378,3.673-4.454,9.864-3.935,9.283-.393.44-.181,1.082-.112,1.552.006.043.015.084.023.126.012.061.025.122.041.181.011.042.022.083.035.124.021.066.045.131.071.194.012.031.023.062.037.091a2.342,2.342,0,0,0,.125.238c.019.031.04.061.06.092.035.052.071.1.11.152.022.029.045.058.069.086q.076.087.162.168c.014.013.027.028.041.04a2.2,2.2,0,0,0,.227.178c.027.019.055.037.083.054.06.039.122.075.186.109.03.016.059.032.09.047a2.834,2.834,0,0,0,.27.113l.024.009a2.872,2.872,0,0,0,.319.09c.033.008.067.014.1.02.084.017.17.031.259.042.035,0,.07.009.107.012.122.011.246.019.376.019h7.952a7.446,7.446,0,0,0,6.175-4.327L30,0" style="fill:url(#a)"/><circle cx="13.087" cy="9.078" r="5.281" style="fill:url(#b)"/><path d="M17.663,0H10.245A7.443,7.443,0,0,0,4.071,4.328L.376,12.983c-1.016,2.38.1,4.327,2.48,4.327h7.479c-.13,0-.254-.008-.376-.019-.037,0-.072-.008-.107-.012-.089-.011-.175-.025-.259-.042-.034-.006-.068-.012-.1-.02a3.1,3.1,0,0,1-.319-.089l-.024-.01a2.834,2.834,0,0,1-.27-.113c-.031-.015-.06-.031-.09-.047-.064-.034-.126-.07-.186-.109-.028-.017-.056-.035-.083-.054a2.2,2.2,0,0,1-.227-.178c-.014-.012-.027-.027-.041-.04q-.086-.081-.162-.168c-.024-.028-.046-.057-.069-.086-.039-.049-.075-.1-.11-.152-.02-.031-.041-.061-.06-.092a2.241,2.241,0,0,1-.125-.238c-.014-.029-.025-.06-.037-.091-.026-.063-.05-.128-.071-.194-.013-.041-.024-.082-.035-.124-.016-.059-.029-.119-.041-.181-.008-.042-.017-.083-.023-.126a3.883,3.883,0,0,1,.251-1.918c.028-.075.052-.149.085-.224l3.694-8.655c.033-.076.071-.149.107-.223a7.072,7.072,0,0,1,1.4-1.937c.152-.151.312-.3.476-.435l.093-.076q.206-.169.422-.325l.1-.072c.173-.121.35-.236.53-.342L14.715.9c.164-.1.332-.183.5-.265l.141-.066c.153-.07.307-.135.462-.193.032-.012.064-.026.1-.037q.275-.1.551-.169c.043-.011.086-.019.129-.029.145-.034.29-.061.434-.082.051-.008.1-.016.154-.022A4.742,4.742,0,0,1,17.724,0Z" style="fill:url(#c)"/></svg>